G04*
G04 #@! TF.GenerationSoftware,Altium Limited,Altium Designer,23.6.0 (18)*
G04*
G04 Layer_Physical_Order=1*
G04 Layer_Color=255*
%FSLAX44Y44*%
%MOMM*%
G71*
G04*
G04 #@! TF.SameCoordinates,77718BC8-0557-480E-A45E-325B9DFD1D5B*
G04*
G04*
G04 #@! TF.FilePolarity,Positive*
G04*
G01*
G75*
%ADD10C,0.2500*%
%ADD15C,0.2540*%
%ADD18R,1.2500X2.0000*%
G04:AMPARAMS|DCode=19|XSize=0.65mm|YSize=1.65mm|CornerRadius=0.0488mm|HoleSize=0mm|Usage=FLASHONLY|Rotation=90.000|XOffset=0mm|YOffset=0mm|HoleType=Round|Shape=RoundedRectangle|*
%AMROUNDEDRECTD19*
21,1,0.6500,1.5525,0,0,90.0*
21,1,0.5525,1.6500,0,0,90.0*
1,1,0.0975,0.7763,0.2763*
1,1,0.0975,0.7763,-0.2763*
1,1,0.0975,-0.7763,-0.2763*
1,1,0.0975,-0.7763,0.2763*
%
%ADD19ROUNDEDRECTD19*%
G04:AMPARAMS|DCode=20|XSize=0.65mm|YSize=1.15mm|CornerRadius=0.1625mm|HoleSize=0mm|Usage=FLASHONLY|Rotation=0.000|XOffset=0mm|YOffset=0mm|HoleType=Round|Shape=RoundedRectangle|*
%AMROUNDEDRECTD20*
21,1,0.6500,0.8250,0,0,0.0*
21,1,0.3250,1.1500,0,0,0.0*
1,1,0.3250,0.1625,-0.4125*
1,1,0.3250,-0.1625,-0.4125*
1,1,0.3250,-0.1625,0.4125*
1,1,0.3250,0.1625,0.4125*
%
%ADD20ROUNDEDRECTD20*%
G04:AMPARAMS|DCode=21|XSize=1.6mm|YSize=3.5mm|CornerRadius=0.4mm|HoleSize=0mm|Usage=FLASHONLY|Rotation=180.000|XOffset=0mm|YOffset=0mm|HoleType=Round|Shape=RoundedRectangle|*
%AMROUNDEDRECTD21*
21,1,1.6000,2.7000,0,0,180.0*
21,1,0.8000,3.5000,0,0,180.0*
1,1,0.8000,-0.4000,1.3500*
1,1,0.8000,0.4000,1.3500*
1,1,0.8000,0.4000,-1.3500*
1,1,0.8000,-0.4000,-1.3500*
%
%ADD21ROUNDEDRECTD21*%
%ADD22R,2.0300X1.4000*%
%ADD23R,2.0000X1.2500*%
G04:AMPARAMS|DCode=24|XSize=1.55mm|YSize=0.95mm|CornerRadius=0.2375mm|HoleSize=0mm|Usage=FLASHONLY|Rotation=90.000|XOffset=0mm|YOffset=0mm|HoleType=Round|Shape=RoundedRectangle|*
%AMROUNDEDRECTD24*
21,1,1.5500,0.4750,0,0,90.0*
21,1,1.0750,0.9500,0,0,90.0*
1,1,0.4750,0.2375,0.5375*
1,1,0.4750,0.2375,-0.5375*
1,1,0.4750,-0.2375,-0.5375*
1,1,0.4750,-0.2375,0.5375*
%
%ADD24ROUNDEDRECTD24*%
G04:AMPARAMS|DCode=25|XSize=1.55mm|YSize=0.95mm|CornerRadius=0.2375mm|HoleSize=0mm|Usage=FLASHONLY|Rotation=180.000|XOffset=0mm|YOffset=0mm|HoleType=Round|Shape=RoundedRectangle|*
%AMROUNDEDRECTD25*
21,1,1.5500,0.4750,0,0,180.0*
21,1,1.0750,0.9500,0,0,180.0*
1,1,0.4750,-0.5375,0.2375*
1,1,0.4750,0.5375,0.2375*
1,1,0.4750,0.5375,-0.2375*
1,1,0.4750,-0.5375,-0.2375*
%
%ADD25ROUNDEDRECTD25*%
G04:AMPARAMS|DCode=26|XSize=1.05mm|YSize=1.1mm|CornerRadius=0.2625mm|HoleSize=0mm|Usage=FLASHONLY|Rotation=270.000|XOffset=0mm|YOffset=0mm|HoleType=Round|Shape=RoundedRectangle|*
%AMROUNDEDRECTD26*
21,1,1.0500,0.5750,0,0,270.0*
21,1,0.5250,1.1000,0,0,270.0*
1,1,0.5250,-0.2875,-0.2625*
1,1,0.5250,-0.2875,0.2625*
1,1,0.5250,0.2875,0.2625*
1,1,0.5250,0.2875,-0.2625*
%
%ADD26ROUNDEDRECTD26*%
G04:AMPARAMS|DCode=27|XSize=1.05mm|YSize=3.3mm|CornerRadius=0.2625mm|HoleSize=0mm|Usage=FLASHONLY|Rotation=180.000|XOffset=0mm|YOffset=0mm|HoleType=Round|Shape=RoundedRectangle|*
%AMROUNDEDRECTD27*
21,1,1.0500,2.7750,0,0,180.0*
21,1,0.5250,3.3000,0,0,180.0*
1,1,0.5250,-0.2625,1.3875*
1,1,0.5250,0.2625,1.3875*
1,1,0.5250,0.2625,-1.3875*
1,1,0.5250,-0.2625,-1.3875*
%
%ADD27ROUNDEDRECTD27*%
G04:AMPARAMS|DCode=28|XSize=0.65mm|YSize=1.15mm|CornerRadius=0.1625mm|HoleSize=0mm|Usage=FLASHONLY|Rotation=90.000|XOffset=0mm|YOffset=0mm|HoleType=Round|Shape=RoundedRectangle|*
%AMROUNDEDRECTD28*
21,1,0.6500,0.8250,0,0,90.0*
21,1,0.3250,1.1500,0,0,90.0*
1,1,0.3250,0.4125,0.1625*
1,1,0.3250,0.4125,-0.1625*
1,1,0.3250,-0.4125,-0.1625*
1,1,0.3250,-0.4125,0.1625*
%
%ADD28ROUNDEDRECTD28*%
G04:AMPARAMS|DCode=29|XSize=1.4mm|YSize=1.2mm|CornerRadius=0.15mm|HoleSize=0mm|Usage=FLASHONLY|Rotation=90.000|XOffset=0mm|YOffset=0mm|HoleType=Round|Shape=RoundedRectangle|*
%AMROUNDEDRECTD29*
21,1,1.4000,0.9000,0,0,90.0*
21,1,1.1000,1.2000,0,0,90.0*
1,1,0.3000,0.4500,0.5500*
1,1,0.3000,0.4500,-0.5500*
1,1,0.3000,-0.4500,-0.5500*
1,1,0.3000,-0.4500,0.5500*
%
%ADD29ROUNDEDRECTD29*%
G04:AMPARAMS|DCode=30|XSize=1.4mm|YSize=1.2mm|CornerRadius=0.15mm|HoleSize=0mm|Usage=FLASHONLY|Rotation=180.000|XOffset=0mm|YOffset=0mm|HoleType=Round|Shape=RoundedRectangle|*
%AMROUNDEDRECTD30*
21,1,1.4000,0.9000,0,0,180.0*
21,1,1.1000,1.2000,0,0,180.0*
1,1,0.3000,-0.5500,0.4500*
1,1,0.3000,0.5500,0.4500*
1,1,0.3000,0.5500,-0.4500*
1,1,0.3000,-0.5500,-0.4500*
%
%ADD30ROUNDEDRECTD30*%
G04:AMPARAMS|DCode=31|XSize=5.55mm|YSize=7.5mm|CornerRadius=0.555mm|HoleSize=0mm|Usage=FLASHONLY|Rotation=180.000|XOffset=0mm|YOffset=0mm|HoleType=Round|Shape=RoundedRectangle|*
%AMROUNDEDRECTD31*
21,1,5.5500,6.3900,0,0,180.0*
21,1,4.4400,7.5000,0,0,180.0*
1,1,1.1100,-2.2200,3.1950*
1,1,1.1100,2.2200,3.1950*
1,1,1.1100,2.2200,-3.1950*
1,1,1.1100,-2.2200,-3.1950*
%
%ADD31ROUNDEDRECTD31*%
%ADD32R,1.6000X1.6000*%
%ADD33C,1.6000*%
%ADD34C,3.0000*%
%ADD35C,1.8000*%
%ADD36R,1.8000X1.8000*%
%ADD37C,2.6000*%
%ADD38C,5.3340*%
%ADD39C,2.1590*%
%ADD40C,6.0000*%
%ADD41C,4.0000*%
%ADD42R,1.8000X1.8000*%
%ADD43R,1.2000X1.2000*%
%ADD44C,1.2000*%
%ADD45R,1.2000X1.2000*%
%ADD46C,1.2500*%
%ADD47C,0.7500*%
G36*
X162272Y545000D02*
Y430000D01*
X159772Y427500D01*
X26781D01*
X24772Y430000D01*
Y543475D01*
X31297Y550000D01*
X157272D01*
X162272Y545000D01*
D02*
G37*
G36*
X1325000Y772500D02*
Y657500D01*
X1322500Y655000D01*
X1189509D01*
X1187500Y657500D01*
Y770975D01*
X1194025Y777500D01*
X1320000D01*
X1325000Y772500D01*
D02*
G37*
G36*
X1583500Y904779D02*
X1583477Y904638D01*
Y904473D01*
X1583453Y904285D01*
X1583430Y904074D01*
X1583383Y903839D01*
X1583289Y903322D01*
X1583124Y902711D01*
X1582913Y902077D01*
X1582631Y901442D01*
X1582255Y900784D01*
X1582043Y900455D01*
X1581785Y900150D01*
X1581526Y899845D01*
X1581221Y899539D01*
X1580916Y899281D01*
X1580563Y899022D01*
X1580164Y898787D01*
X1579764Y898576D01*
X1579318Y898388D01*
X1578824Y898223D01*
X1578308Y898082D01*
X1577744Y897988D01*
X1577156Y897941D01*
X1576522Y897918D01*
X1560968D01*
Y902922D01*
X1574126D01*
X1574149D01*
X1574173D01*
X1574314D01*
X1574525Y902946D01*
X1574807Y902993D01*
X1575159Y903040D01*
X1575535Y903134D01*
X1575935Y903275D01*
X1576334Y903439D01*
X1576757Y903674D01*
X1577133Y903956D01*
X1577509Y904309D01*
X1577838Y904732D01*
X1578120Y905248D01*
X1578331Y905836D01*
X1578402Y906165D01*
X1578449Y906517D01*
X1578496Y906893D01*
Y915445D01*
X1583500D01*
Y904779D01*
D02*
G37*
G36*
Y882576D02*
X1569732D01*
Y885043D01*
X1569755Y885184D01*
X1569779Y885348D01*
X1569849Y885536D01*
X1569920Y885771D01*
X1570037Y886006D01*
X1570178Y886264D01*
X1570343Y886499D01*
X1570578Y886758D01*
X1570860Y886969D01*
X1571189Y887181D01*
X1571588Y887345D01*
X1572034Y887463D01*
X1572551Y887557D01*
X1573162Y887580D01*
X1583500D01*
Y882576D01*
D02*
G37*
G36*
Y891339D02*
X1570296D01*
X1569896D01*
X1569544Y891292D01*
X1569192Y891222D01*
X1568863Y891151D01*
X1568299Y890940D01*
X1567805Y890658D01*
X1567382Y890329D01*
X1567030Y889977D01*
X1566748Y889577D01*
X1566513Y889178D01*
X1566325Y888778D01*
X1566208Y888379D01*
X1566114Y888027D01*
X1566043Y887698D01*
X1565996Y887416D01*
X1565973Y887204D01*
Y878817D01*
X1583500D01*
Y873812D01*
X1560968D01*
Y887016D01*
X1560992Y887862D01*
X1561062Y888661D01*
X1561203Y889413D01*
X1561368Y890094D01*
X1561579Y890752D01*
X1561838Y891339D01*
X1562120Y891903D01*
X1562425Y892420D01*
X1562777Y892890D01*
X1563130Y893313D01*
X1563506Y893712D01*
X1563929Y894065D01*
X1564328Y894394D01*
X1564751Y894676D01*
X1565197Y894958D01*
X1565620Y895169D01*
X1566067Y895380D01*
X1566490Y895568D01*
X1566936Y895709D01*
X1567335Y895850D01*
X1568134Y896062D01*
X1568487Y896132D01*
X1568839Y896203D01*
X1569145Y896250D01*
X1569427Y896273D01*
X1569685Y896320D01*
X1569896D01*
X1570061Y896344D01*
X1570202D01*
X1570272D01*
X1570296D01*
X1583500D01*
Y891339D01*
D02*
G37*
G36*
Y856426D02*
X1569732D01*
Y861430D01*
X1583500D01*
Y856426D01*
D02*
G37*
G36*
X1574736Y865189D02*
X1565973D01*
Y852667D01*
X1574736D01*
Y847662D01*
X1560968D01*
Y870194D01*
X1574736D01*
Y865189D01*
D02*
G37*
G36*
Y831263D02*
X1574713Y831122D01*
X1574666Y830910D01*
X1574572Y830699D01*
X1574431Y830464D01*
X1574220Y830252D01*
X1574079Y830182D01*
X1573891Y830111D01*
X1573703Y830088D01*
X1573491Y830064D01*
X1569732D01*
Y843832D01*
X1574736D01*
Y831263D01*
D02*
G37*
G36*
X1583500Y831075D02*
X1583477Y830887D01*
X1583453Y830652D01*
X1583430Y830393D01*
X1583406Y830088D01*
X1583336Y829735D01*
X1583265Y829383D01*
X1583195Y828984D01*
X1582983Y828138D01*
X1582819Y827691D01*
X1582654Y827245D01*
X1582466Y826775D01*
X1582255Y826305D01*
X1581996Y825835D01*
X1581714Y825365D01*
X1581409Y824919D01*
X1581057Y824473D01*
X1580681Y824026D01*
X1580258Y823627D01*
X1579788Y823227D01*
X1579271Y822875D01*
X1578730Y822523D01*
X1578120Y822217D01*
X1577485Y821959D01*
X1576804Y821724D01*
X1576052Y821559D01*
X1575253Y821418D01*
X1574407Y821324D01*
X1573491Y821301D01*
X1560968D01*
Y843832D01*
X1565973D01*
Y826305D01*
X1565996D01*
X1566020D01*
X1566090D01*
X1566208D01*
X1566372D01*
X1566607D01*
X1566913D01*
X1567101D01*
X1567312D01*
X1567547D01*
X1567829D01*
X1568111D01*
X1568416D01*
X1568769D01*
X1569145D01*
X1569568D01*
X1570014D01*
X1570507D01*
X1571024D01*
X1571564D01*
X1572175D01*
X1572810D01*
X1573491D01*
X1573515D01*
X1573538D01*
X1573609D01*
X1573703D01*
X1573961Y826329D01*
X1574267Y826376D01*
X1574666Y826470D01*
X1575089Y826564D01*
X1575535Y826728D01*
X1576005Y826939D01*
X1576475Y827198D01*
X1576921Y827527D01*
X1577344Y827926D01*
X1577720Y828420D01*
X1577885Y828702D01*
X1578049Y828984D01*
X1578167Y829313D01*
X1578284Y829665D01*
X1578378Y830041D01*
X1578449Y830440D01*
X1578472Y830863D01*
X1578496Y831310D01*
Y843832D01*
X1583500D01*
Y831075D01*
D02*
G37*
D10*
X595596Y525596D02*
X602500Y532500D01*
X628500D02*
X634074Y526926D01*
X602500Y532500D02*
X628500D01*
X634074Y526926D02*
X639029D01*
X640500Y524064D02*
Y525454D01*
X639029Y526926D02*
X640500Y525454D01*
X652000Y533750D02*
X690000D01*
X641000Y522750D02*
Y524954D01*
X642971Y526926D02*
X645176D01*
X641000Y524954D02*
X642971Y526926D01*
X645176D02*
X652000Y533750D01*
X267250Y219050D02*
Y234404D01*
X252784Y244404D02*
X255354Y241835D01*
X259820D01*
X267250Y234404D01*
X160000Y254404D02*
X163096Y257500D01*
X159000Y253404D02*
X160000Y254404D01*
X240043Y257500D02*
Y305000D01*
X252784Y244404D02*
Y246796D01*
X249370Y250210D02*
X252784Y246796D01*
X247333Y250210D02*
X249370D01*
X240043Y257500D02*
X247333Y250210D01*
X163096Y257500D02*
X240043D01*
X202700Y244404D02*
X229284D01*
X230000Y193650D02*
X268250D01*
X212750D02*
X230000D01*
X229284Y194366D02*
Y244404D01*
Y194366D02*
X230000Y193650D01*
X160000Y130000D02*
Y184404D01*
X983719Y552500D02*
X1005250D01*
X965000Y547500D02*
X985000Y567500D01*
X717292Y462250D02*
X720706Y465664D01*
X880000Y547500D02*
X965000D01*
X985000Y567500D02*
X1020000D01*
X1028750Y550208D02*
Y552500D01*
Y550208D02*
X1032164Y546794D01*
X1034456D01*
X1046665Y534585D01*
Y530635D02*
Y534585D01*
Y530635D02*
X1048250Y529050D01*
X1005250Y550208D02*
Y552500D01*
X1001836Y546794D02*
X1005250Y550208D01*
X999544Y546794D02*
X1001836D01*
X991750Y539000D02*
X999544Y546794D01*
X991750Y529050D02*
Y539000D01*
X1026169Y555081D02*
X1028750Y552500D01*
X1026169Y555081D02*
Y561331D01*
X1020000Y567500D02*
X1026169Y561331D01*
X650000Y500000D02*
X686250D01*
X562500Y520000D02*
Y546635D01*
Y520000D02*
X590000D01*
X590865D01*
X1351645Y701720D02*
X1367500Y685865D01*
X1347500Y710000D02*
X1351645Y705855D01*
Y701720D02*
Y705855D01*
X1367500Y685000D02*
Y685865D01*
X110000Y193650D02*
Y215428D01*
X128047Y233404D02*
X130047Y235404D01*
X132750D01*
X127976Y233404D02*
X128047D01*
X110000Y215428D02*
X127976Y233404D01*
X132750Y253404D02*
X159000D01*
X141272Y384000D02*
X316000D01*
X445000Y255000D01*
X70000Y218750D02*
Y247341D01*
X668250Y685000D02*
Y703250D01*
X685400Y720400D01*
Y890000D01*
X727250Y483500D02*
X729454D01*
X731426Y485471D01*
Y487676D01*
X747500Y503750D01*
X715000Y462250D02*
Y471250D01*
X723074Y479324D01*
Y481529D01*
X725046Y483500D01*
X727250D01*
Y501500D02*
X729454D01*
X731426Y503471D01*
Y505676D01*
X747500Y521750D01*
Y546635D01*
X781635Y512500D02*
X782500D01*
X776904Y517231D02*
X781635Y512500D01*
X776904Y517231D02*
Y518096D01*
X753096Y541904D02*
X776904Y518096D01*
X752231Y541904D02*
X753096D01*
X747500Y546635D02*
X752231Y541904D01*
X341972Y231074D02*
X347630D01*
X367588Y211116D02*
X376558D01*
X376874Y210800D01*
X347630Y231074D02*
X367588Y211116D01*
X340000Y233046D02*
Y235250D01*
Y233046D02*
X341972Y231074D01*
X335250Y171750D02*
X359350D01*
X360000Y172400D02*
Y182850D01*
Y161950D02*
Y172400D01*
X359350Y171750D02*
X360000Y172400D01*
X370714Y151236D02*
X378764D01*
X380000Y150000D01*
X360000Y161950D02*
X370714Y151236D01*
X349000Y207546D02*
Y209750D01*
X347029Y205574D02*
X349000Y207546D01*
X344824Y205574D02*
X347029D01*
X327946Y188696D02*
X344824Y205574D01*
X321196Y188696D02*
X327946D01*
X320000Y187500D02*
X321196Y188696D01*
X331000Y209750D02*
Y241285D01*
X376009Y230800D02*
X376874D01*
X371278Y235531D02*
X376009Y230800D01*
X371278Y235531D02*
Y236396D01*
X363924Y243750D02*
X371278Y236396D01*
X333465Y243750D02*
X363924D01*
X331000Y241285D02*
X333465Y243750D01*
X300000Y206204D02*
X329029D01*
X331000Y208176D01*
Y209750D01*
X92572Y461500D02*
X189000D01*
X87500D02*
X92572D01*
X40000Y332500D02*
Y345000D01*
X69772Y374772D02*
Y400000D01*
X40000Y345000D02*
X69772Y374772D01*
Y312500D02*
X141272Y384000D01*
X40000Y312500D02*
X69772D01*
X220000Y492500D02*
Y505750D01*
X189000Y461500D02*
X220000Y492500D01*
Y529250D02*
Y545000D01*
X245000Y570000D01*
X102750Y242201D02*
X104953Y244404D01*
X107250D01*
X102750Y242109D02*
Y242201D01*
X100000Y239359D02*
X102750Y242109D01*
X100000Y203650D02*
Y239359D01*
X445000Y148250D02*
X467071D01*
X467500Y148680D01*
X190000Y206350D02*
X212750D01*
X1260000Y685000D02*
X1347500D01*
X1367500Y637602D02*
Y660000D01*
Y637602D02*
X1367602Y637500D01*
X1272500Y522500D02*
X1292500D01*
X1247500Y502500D02*
X1272500D01*
X1232500Y537500D02*
Y637254D01*
Y537500D02*
X1247500Y522500D01*
Y472500D02*
Y502500D01*
X1201398D02*
X1222500D01*
X1117500Y291470D02*
Y305000D01*
X1025400Y199370D02*
X1117500Y291470D01*
X1085974Y306506D02*
X1095994D01*
X1078740Y313740D02*
X1085974Y306506D01*
X457726Y182850D02*
X529381D01*
X557500Y154731D01*
X557550Y154681D01*
X444876Y170000D02*
X457726Y182850D01*
X412424Y170000D02*
X444876D01*
X1021150Y510000D02*
X1027500Y503650D01*
X1014800Y516350D02*
X1021150Y510000D01*
Y489582D02*
X1035732Y475000D01*
X1021150Y489582D02*
Y510000D01*
X889500Y491700D02*
Y500202D01*
X879000Y510702D02*
X889500Y500202D01*
X879000Y510702D02*
Y521500D01*
X890000Y532500D01*
X865000D02*
X880000Y547500D01*
X865000Y512500D02*
Y532500D01*
X877500Y480000D02*
X962500D01*
X870596Y486904D02*
X877500Y480000D01*
X915000Y455000D02*
X928250D01*
X867739Y473750D02*
X896250D01*
X912796Y455000D02*
X915000D01*
X910824Y456972D02*
X912796Y455000D01*
X910824Y456972D02*
Y459176D01*
X896250Y473750D02*
X910824Y459176D01*
X967500Y492500D02*
X967500Y492500D01*
X917500Y492500D02*
X967500D01*
X967500Y492500D02*
X968750D01*
X848990Y492500D02*
X867739Y473750D01*
X837500Y492500D02*
X848990D01*
X810000D02*
X837500D01*
X865865D02*
X870596Y487769D01*
X865000Y492500D02*
X865865D01*
X870596Y486904D02*
Y487769D01*
X577500Y434100D02*
X601600D01*
X606904Y439404D01*
Y440269D01*
X611635Y445000D01*
X612500D01*
Y419895D02*
Y445000D01*
Y419895D02*
X632395Y400000D01*
X715000Y385000D02*
Y438750D01*
X767500Y370000D02*
Y403000D01*
X836635Y444750D02*
X837500D01*
X831904Y440019D02*
X836635Y444750D01*
X831904Y439154D02*
Y440019D01*
X819413Y426663D02*
X831904Y439154D01*
X819413Y421913D02*
Y426663D01*
X817500Y420000D02*
X819413Y421913D01*
X889500Y400500D02*
Y446000D01*
Y400500D02*
X890000Y400000D01*
X937250Y446000D02*
X946259D01*
X972259Y420000D01*
X889500Y446000D02*
X937250D01*
X1069750Y405250D02*
Y427500D01*
Y405250D02*
X1070000Y405000D01*
X1109000Y490950D02*
X1126059D01*
X1127500Y489509D01*
X1109000Y490950D02*
X1111750Y493700D01*
X910490Y521500D02*
X941228D01*
X971288Y521060D02*
X983719D01*
X971228Y521000D02*
X971288Y521060D01*
X904190Y515200D02*
X910490Y521500D01*
X941728Y521000D02*
X971228D01*
X941228Y521500D02*
X941728Y521000D01*
X983719Y521060D02*
X988429Y516350D01*
X1457500Y685000D02*
Y710000D01*
Y632500D02*
Y685000D01*
X1367500D02*
X1457500D01*
X1367500Y710000D02*
Y735000D01*
X1347500Y665000D02*
Y685000D01*
X690000Y658598D02*
X691750Y660348D01*
Y685000D01*
X668250Y630000D02*
Y656848D01*
X968750Y492500D02*
X980000Y503750D01*
X889500Y515200D02*
X904190D01*
X917500Y512500D02*
X937500D01*
X988429Y516350D02*
X1014800D01*
X1370285Y939715D02*
X1385000Y925000D01*
X1347500Y735000D02*
X1385000Y772500D01*
Y925000D01*
X557550Y154681D02*
X582900D01*
X380000Y170000D02*
X412424D01*
X376074D02*
X380000D01*
X1222500Y522500D02*
X1247500D01*
X1367500Y735000D02*
X1457100D01*
X1457500Y735400D01*
X1360000Y940801D02*
X1361086Y939715D01*
X1370285D01*
X1457500Y735400D02*
Y802500D01*
X727500Y547500D02*
Y614609D01*
X1046250Y347500D02*
Y427500D01*
X1083750Y455000D02*
X1160000D01*
X1452500Y182100D02*
Y207500D01*
Y291700D01*
X574523Y470900D02*
X577500D01*
X568773Y465150D02*
X574523Y470900D01*
X568773Y462173D02*
Y465150D01*
X557500Y450900D02*
X568773Y462173D01*
X480000Y290000D02*
X557500Y367500D01*
Y450900D01*
X996364Y490950D02*
X1000026D01*
X1001560Y489416D01*
Y485754D02*
Y489416D01*
Y485754D02*
X1032314Y455000D01*
X1046250D01*
Y427500D02*
Y455000D01*
X962500Y480000D02*
X969050D01*
X962750Y455000D02*
Y479750D01*
X962500Y480000D02*
X962750Y479750D01*
X1043636Y490950D02*
X1091000D01*
X980000D02*
X996364D01*
X969050Y480000D02*
X980000Y490950D01*
X996264Y503750D02*
X996364Y503650D01*
X980000Y503750D02*
X996264D01*
X1027500Y503650D02*
X1043636D01*
X935046Y464000D02*
X937250D01*
X933074Y462029D02*
X935046Y464000D01*
X933074Y459824D02*
Y462029D01*
X928250Y455000D02*
X933074Y459824D01*
X865000Y445000D02*
X865865D01*
X870596Y449731D01*
Y450596D01*
X882574Y462574D01*
X888074D01*
X889500Y464000D01*
X837500Y464750D02*
X864750D01*
X865000Y465000D01*
X782500Y492500D02*
X783365D01*
X788096Y487769D01*
Y486904D02*
Y487769D01*
Y486904D02*
X810250Y464750D01*
X837500D01*
Y512500D02*
X865000D01*
X817260Y503750D02*
X826010Y512500D01*
X747500Y503750D02*
X817260D01*
X826010Y512500D02*
X837500D01*
X757000Y492000D02*
X782000D01*
X782500Y492500D01*
Y512500D02*
X810000D01*
X727500Y533750D02*
Y547500D01*
X698277Y504527D02*
X727500Y533750D01*
X698277Y501250D02*
Y504527D01*
X693277Y496250D02*
X698277Y501250D01*
X690000Y496250D02*
X693277D01*
X656500Y444750D02*
X685750D01*
X690000Y440500D01*
X717292Y462250D02*
X762250D01*
X715000D02*
X717292D01*
X762250D02*
X767500Y457000D01*
X690000Y460500D02*
X713250D01*
X715000Y462250D01*
X690000Y460500D02*
Y496250D01*
X686250Y500000D02*
X690000Y496250D01*
X647500Y470250D02*
Y472329D01*
X645529Y474301D02*
X647500Y472329D01*
X643199Y474301D02*
X645529D01*
X623096Y494404D02*
X643199Y474301D01*
X623096Y494404D02*
Y495269D01*
X618365Y500000D02*
X623096Y495269D01*
X617500Y500000D02*
X618365D01*
X612500Y465000D02*
X636250D01*
X652324Y448926D01*
X654529D01*
X656500Y446954D01*
Y444750D02*
Y446954D01*
X577500Y470900D02*
X581431Y466969D01*
X589935D01*
X603154Y453750D01*
X629500D01*
X634324Y448926D01*
X636529D01*
X638500Y446954D01*
Y444750D02*
Y446954D01*
X617500Y520000D02*
X618635D01*
X616635D02*
X617500D01*
X618635D02*
X625885Y512750D01*
X652250D01*
X656250Y516750D01*
X659500Y519500D02*
Y520000D01*
X656750Y516750D02*
X659500Y519500D01*
X656250Y516750D02*
X656750D01*
X595596Y524731D02*
Y525596D01*
X590865Y520000D02*
X595596Y524731D01*
X562500Y485900D02*
Y500000D01*
Y485900D02*
X568773Y479627D01*
Y476650D02*
Y479627D01*
Y476650D02*
X574523Y470900D01*
X590000Y500000D02*
X591786Y501786D01*
X599286D01*
X611904Y514404D01*
Y515269D01*
X616635Y520000D01*
X245000Y570000D02*
X434600Y570000D01*
X335250Y148250D02*
X335371D01*
X338786Y144836D01*
Y141215D02*
Y144836D01*
Y141215D02*
X352500Y127500D01*
X300000Y226204D02*
Y294914D01*
X300086Y295000D01*
X300000Y173500D02*
X302292D01*
X305706Y176914D01*
Y179206D01*
X312429Y185929D01*
X318429D01*
X320000Y187500D01*
X297708Y173500D02*
X300000D01*
X294294Y176914D02*
X297708Y173500D01*
X160000Y130000D02*
X160000Y130000D01*
X70000Y165521D02*
Y181250D01*
Y165521D02*
X70521Y165000D01*
X125450Y90000D02*
X177300D01*
X380000Y150000D02*
X412424D01*
X360000Y60000D02*
Y70000D01*
X331750Y171750D02*
X335250D01*
X320000Y160000D02*
X331750Y171750D01*
X300000Y120800D02*
X300865D01*
X305596Y125531D01*
Y126396D01*
X320000Y140800D01*
Y160000D01*
X376874Y199724D02*
Y210800D01*
X360000Y182850D02*
X376874Y199724D01*
X375724Y229650D02*
X376874Y230800D01*
X309286Y120715D02*
X360000Y70000D01*
X300086Y120715D02*
X309286D01*
X300000Y120800D02*
X300086Y120715D01*
X294294Y146685D02*
X297609Y150000D01*
X294294Y144294D02*
Y146685D01*
X290000Y140000D02*
X294294Y144294D01*
X290000Y110800D02*
Y140000D01*
X299135Y100800D02*
X300000D01*
X294404Y105531D02*
X299135Y100800D01*
X294404Y105531D02*
Y106396D01*
X290000Y110800D02*
X294404Y106396D01*
X267250Y180950D02*
X270627D01*
X272377Y179200D01*
Y175823D02*
Y179200D01*
Y175823D02*
X294195Y154005D01*
Y153414D02*
Y154005D01*
Y153414D02*
X297609Y150000D01*
X100050Y90000D02*
Y183600D01*
X100000Y183650D02*
X100050Y183600D01*
X191900Y180950D02*
X212750D01*
X190000Y182850D02*
X191900Y180950D01*
X200000Y219050D02*
X212750D01*
X160000Y234404D02*
X184646D01*
X200000Y219050D01*
X160000Y204404D02*
Y234404D01*
X100000Y183650D02*
X100865D01*
X105596Y188381D01*
Y189246D01*
X110000Y193650D01*
X70000Y218750D02*
X84900D01*
X94404Y209246D01*
Y208381D02*
Y209246D01*
Y208381D02*
X99135Y203650D01*
X100000D01*
X267250Y219050D02*
X268250D01*
D15*
X159000Y15000D02*
X164078D01*
X161539D01*
Y30235D01*
X159000Y27696D01*
X179313Y15000D02*
Y30235D01*
X171696Y22618D01*
X181853D01*
X186931Y27696D02*
X189470Y30235D01*
X194548D01*
X197088Y27696D01*
Y25157D01*
X194548Y22618D01*
X192009D01*
X194548D01*
X197088Y20078D01*
Y17539D01*
X194548Y15000D01*
X189470D01*
X186931Y17539D01*
X202166Y27696D02*
X204705Y30235D01*
X209783D01*
X212323Y27696D01*
Y25157D01*
X209783Y22618D01*
X212323Y20078D01*
Y17539D01*
X209783Y15000D01*
X204705D01*
X202166Y17539D01*
Y20078D01*
X204705Y22618D01*
X202166Y25157D01*
Y27696D01*
X204705Y22618D02*
X209783D01*
X217401Y15000D02*
Y17539D01*
X219940D01*
Y15000D01*
X217401D01*
X240254Y30235D02*
X230097D01*
Y22618D01*
X235175Y25157D01*
X237715D01*
X240254Y22618D01*
Y17539D01*
X237715Y15000D01*
X232636D01*
X230097Y17539D01*
X245332Y15000D02*
X250410D01*
X247871D01*
Y30235D01*
X245332Y27696D01*
X258028D02*
X260567Y30235D01*
X265645D01*
X268185Y27696D01*
Y17539D01*
X265645Y15000D01*
X260567D01*
X258028Y17539D01*
Y27696D01*
X273263D02*
X275802Y30235D01*
X280881D01*
X283420Y27696D01*
Y17539D01*
X280881Y15000D01*
X275802D01*
X273263Y17539D01*
Y27696D01*
X288498Y15000D02*
Y17539D01*
X291037D01*
Y15000D01*
X288498D01*
X301194Y27696D02*
X303733Y30235D01*
X308811D01*
X311351Y27696D01*
Y17539D01*
X308811Y15000D01*
X303733D01*
X301194Y17539D01*
Y27696D01*
X316429D02*
X318968Y30235D01*
X324047D01*
X326586Y27696D01*
Y17539D01*
X324047Y15000D01*
X318968D01*
X316429Y17539D01*
Y27696D01*
X90000Y15000D02*
X95078D01*
X92539D01*
Y30235D01*
X90000Y27696D01*
D18*
X1083750Y455000D02*
D03*
X1046250D02*
D03*
D19*
X991750Y529050D02*
D03*
Y516350D02*
D03*
Y503650D02*
D03*
Y490950D02*
D03*
X1048250Y529050D02*
D03*
Y516350D02*
D03*
Y503650D02*
D03*
Y490950D02*
D03*
X268250Y180950D02*
D03*
Y193650D02*
D03*
Y206350D02*
D03*
Y219050D02*
D03*
X211750Y180950D02*
D03*
Y193650D02*
D03*
Y206350D02*
D03*
Y219050D02*
D03*
D20*
X659000Y522750D02*
D03*
X641000D02*
D03*
X650000Y497250D02*
D03*
X656500Y444750D02*
D03*
X638500D02*
D03*
X647500Y470250D02*
D03*
X331000Y209750D02*
D03*
X349000D02*
D03*
X340000Y235250D02*
D03*
D21*
X767500Y457000D02*
D03*
Y403000D02*
D03*
D22*
X577500Y434100D02*
D03*
Y470900D02*
D03*
D23*
X690000Y496250D02*
D03*
Y533750D02*
D03*
X70000Y181250D02*
D03*
Y218750D02*
D03*
D24*
X668250Y685000D02*
D03*
X691750D02*
D03*
X1028750Y552500D02*
D03*
X1005250D02*
D03*
X1046250Y427500D02*
D03*
X1069750D02*
D03*
X229284Y244404D02*
D03*
X252784D02*
D03*
D25*
X220000Y505750D02*
D03*
Y529250D02*
D03*
X652324Y225750D02*
D03*
Y249250D02*
D03*
X1070000Y843250D02*
D03*
Y866750D02*
D03*
X445000Y148250D02*
D03*
Y171750D02*
D03*
X715000Y438750D02*
D03*
Y462250D02*
D03*
X889500Y491700D02*
D03*
Y515200D02*
D03*
X187500Y182850D02*
D03*
Y206350D02*
D03*
X300000Y150000D02*
D03*
Y173500D02*
D03*
X335250Y148250D02*
D03*
Y171750D02*
D03*
D26*
X1091000Y490950D02*
D03*
X1109000D02*
D03*
D27*
X69772Y400000D02*
D03*
X115372D02*
D03*
X1232500Y627500D02*
D03*
X1278100D02*
D03*
D28*
X937250Y464000D02*
D03*
Y446000D02*
D03*
X962750Y455000D02*
D03*
X889500Y464000D02*
D03*
Y446000D02*
D03*
X915000Y455000D02*
D03*
X107250Y244404D02*
D03*
X132750Y235404D02*
D03*
Y253404D02*
D03*
X727250Y501500D02*
D03*
Y483500D02*
D03*
X752750Y492500D02*
D03*
D29*
X670000Y658598D02*
D03*
X690000D02*
D03*
X1347500Y735000D02*
D03*
X1367500D02*
D03*
X1097500Y305000D02*
D03*
X1117500D02*
D03*
X1347500Y710000D02*
D03*
X1367500D02*
D03*
X1347500Y685000D02*
D03*
X1367500D02*
D03*
X1347500Y660000D02*
D03*
X1367500D02*
D03*
X727500Y547500D02*
D03*
X747500D02*
D03*
D30*
X40000Y332500D02*
D03*
Y312500D02*
D03*
X1247500Y522500D02*
D03*
Y502500D02*
D03*
X1272500Y522500D02*
D03*
Y502500D02*
D03*
X1222500D02*
D03*
Y522500D02*
D03*
X562500Y520000D02*
D03*
Y500000D02*
D03*
X590000D02*
D03*
Y520000D02*
D03*
X837500Y492500D02*
D03*
Y512500D02*
D03*
X865000D02*
D03*
Y492500D02*
D03*
X617500Y520000D02*
D03*
Y500000D02*
D03*
X810000Y492500D02*
D03*
Y512500D02*
D03*
X917500Y492500D02*
D03*
Y512500D02*
D03*
X782500D02*
D03*
Y492500D02*
D03*
X690000Y460500D02*
D03*
Y440500D02*
D03*
X865000Y465000D02*
D03*
Y445000D02*
D03*
X612500D02*
D03*
Y465000D02*
D03*
X837500Y444750D02*
D03*
Y464750D02*
D03*
X380000Y170000D02*
D03*
Y150000D02*
D03*
X100000Y203650D02*
D03*
Y183650D02*
D03*
X160000Y234404D02*
D03*
Y254404D02*
D03*
X376874Y230800D02*
D03*
Y210800D02*
D03*
X300000Y100800D02*
D03*
Y120800D02*
D03*
Y226204D02*
D03*
Y206204D02*
D03*
X412424Y150000D02*
D03*
Y170000D02*
D03*
X160000Y184404D02*
D03*
Y204404D02*
D03*
D31*
X92572Y461500D02*
D03*
X1255300Y689000D02*
D03*
D32*
X202700Y90000D02*
D03*
X125450D02*
D03*
D33*
X177300D02*
D03*
X100050D02*
D03*
X393801Y643598D02*
D03*
X540801D02*
D03*
X393801Y683598D02*
D03*
X540801D02*
D03*
X1210000Y793801D02*
D03*
Y940801D02*
D03*
X1260000Y793801D02*
D03*
Y940801D02*
D03*
X1310000Y793801D02*
D03*
Y940801D02*
D03*
X1360000Y793801D02*
D03*
Y940801D02*
D03*
D34*
X1457500Y632500D02*
D03*
Y802500D02*
D03*
X307500Y643598D02*
D03*
X432500Y55187D02*
D03*
X340000Y501786D02*
D03*
X727500Y614609D02*
D03*
X1046250Y347500D02*
D03*
X240043Y305000D02*
D03*
X360000Y60000D02*
D03*
D35*
X1457500Y710000D02*
D03*
Y531100D02*
D03*
X1455000Y397100D02*
D03*
Y422500D02*
D03*
X1452500Y342500D02*
D03*
Y317100D02*
D03*
X460000Y570000D02*
D03*
X485400D02*
D03*
D36*
X1457500Y735400D02*
D03*
Y556500D02*
D03*
X1455000Y447900D02*
D03*
X1452500Y291700D02*
D03*
D37*
X37500Y603460D02*
D03*
X262500D02*
D03*
D38*
X466960Y850630D02*
D03*
X903840D02*
D03*
X781560Y160000D02*
D03*
X1218440D02*
D03*
D39*
X710800Y890000D02*
D03*
X660000D02*
D03*
X685400D02*
D03*
X1025400Y199370D02*
D03*
X1000000D02*
D03*
X974600D02*
D03*
D40*
X50000Y50000D02*
D03*
Y950000D02*
D03*
X1550000D02*
D03*
Y50000D02*
D03*
D41*
X30000Y850000D02*
D03*
X210000D02*
D03*
X30000Y733460D02*
D03*
X210000D02*
D03*
D42*
X434600Y570000D02*
D03*
D43*
X1452500Y207500D02*
D03*
X587500Y680800D02*
D03*
D44*
X1452500Y182100D02*
D03*
X1452450Y156700D02*
D03*
X582900Y154681D02*
D03*
X557500Y154731D02*
D03*
X587500Y655400D02*
D03*
X587450Y630000D02*
D03*
D45*
X608300Y154681D02*
D03*
D46*
X202700Y244404D02*
D03*
X160000Y130000D02*
D03*
X983719Y552500D02*
D03*
X175000Y370000D02*
D03*
X115372Y375000D02*
D03*
X467500Y148680D02*
D03*
X1367602Y637500D02*
D03*
X1292500Y522500D02*
D03*
X1247500Y472500D02*
D03*
X1201398Y502500D02*
D03*
X652500Y270000D02*
D03*
X1035732Y475000D02*
D03*
X890000Y532500D02*
D03*
X632395Y400000D02*
D03*
X715000Y385000D02*
D03*
X767500Y370000D02*
D03*
X817500Y420000D02*
D03*
X890000Y400000D02*
D03*
X972259Y420000D02*
D03*
X1070000Y405000D02*
D03*
X1127500Y489509D02*
D03*
X1070000Y817500D02*
D03*
X967500Y492500D02*
D03*
X937500Y512500D02*
D03*
X1160000Y455000D02*
D03*
X480000Y290000D02*
D03*
X445000Y255000D02*
D03*
X175000Y417500D02*
D03*
X352500Y127500D02*
D03*
X300086Y295000D02*
D03*
X320000Y187500D02*
D03*
X70521Y165000D02*
D03*
D47*
X846691Y175000D02*
X1030994D01*
X1309558Y453564D02*
Y560442D01*
X1030994Y175000D02*
X1309558Y453564D01*
X393801Y695000D02*
X408801Y710000D01*
X541098D01*
X570298Y680800D01*
X587500Y655400D02*
X629550D01*
X540801Y643598D02*
Y683598D01*
Y595000D02*
Y643598D01*
X570298Y680800D02*
X587500D01*
X562500Y546635D02*
Y572500D01*
X70000Y247341D02*
Y300000D01*
X543160Y630000D02*
X587450D01*
X540000Y595000D02*
X562500Y572500D01*
X70000Y300000D02*
X140000Y370000D01*
X175000D01*
X76943Y472057D02*
X87500Y461500D01*
X76943Y472057D02*
Y505857D01*
X37500Y545300D02*
X76943Y505857D01*
X115372Y375000D02*
Y400000D01*
X320000D01*
X1260000Y685000D02*
Y793801D01*
X1255300Y685865D02*
Y689000D01*
X1278100Y591900D02*
Y627500D01*
Y591900D02*
X1309558Y560442D01*
X652324Y249250D02*
Y269824D01*
X652500Y270000D01*
X652324Y210800D02*
X836700D01*
X534200D02*
X652324D01*
Y225750D01*
X1078740Y313740D02*
X1177500Y412500D01*
X1000000Y235000D02*
X1078740Y313740D01*
X1095994Y306506D02*
X1097500Y305000D01*
X1000000Y199370D02*
Y235000D01*
X1177500Y412500D02*
Y940801D01*
X1070000Y817500D02*
Y843250D01*
Y895000D02*
X1086699D01*
X880000D02*
X1070000D01*
Y866750D02*
Y895000D01*
X1132500Y940801D02*
X1177500D01*
X1086699Y895000D02*
X1132500Y940801D01*
X717700Y922300D02*
X852700D01*
X880000Y895000D01*
X685400Y890000D02*
X717700Y922300D01*
X668250Y630000D02*
X696516D01*
X654950D02*
X668250D01*
Y656848D02*
X670000Y658598D01*
X710800Y644284D02*
Y890000D01*
X696516Y630000D02*
X710800Y644284D01*
X629550Y655400D02*
X654950Y630000D01*
X393801Y683598D02*
Y695000D01*
X450951Y890000D02*
X660000D01*
X310475Y749525D02*
X450951Y890000D01*
X210000Y850000D02*
X310475Y749525D01*
X376402Y683598D01*
X340000Y536874D02*
X460000D01*
X291168D02*
X340000D01*
Y501786D02*
Y536874D01*
X307500Y643598D02*
X393801D01*
X522500Y197500D02*
X824191D01*
X320000Y400000D02*
X522500Y197500D01*
X460000Y570000D02*
X485000Y595000D01*
X540000D01*
X1177500Y940801D02*
X1210000D01*
X460000Y285000D02*
X534200Y210800D01*
X460000Y285000D02*
Y536874D01*
X177500Y423206D02*
X291168Y536874D01*
X175000Y417500D02*
Y418853D01*
X177500Y421353D01*
Y423206D01*
X836700Y210800D02*
X848130Y199370D01*
X974600D01*
X824191Y197500D02*
X846691Y175000D01*
X37500Y545300D02*
Y603460D01*
X210000Y655960D02*
Y733460D01*
Y655960D02*
X262500Y603460D01*
X30000Y733460D02*
X210000D01*
X460000Y536874D02*
Y570000D01*
X1260000Y793801D02*
X1310000D01*
X1210000D02*
X1260000D01*
X1310000D02*
X1360000D01*
X1310000Y940801D02*
X1360000D01*
X1260000D02*
X1310000D01*
X1210000D02*
X1260000D01*
X393801Y610799D02*
X434600Y570000D01*
X393801Y610799D02*
Y643598D01*
Y683598D01*
X376402D02*
X393801D01*
X30000Y850000D02*
X210000D01*
M02*
