M48
;Layer_Color=9474304
;FILE_FORMAT=4:4
METRIC
;TYPE=PLATED
T1F00S00C0.7000
T2F00S00C0.7112
T3F00S00C0.8000
T4F00S00C1.0000
T5F00S00C1.0500
T6F00S00C1.3000
T7F00S00C1.3970
T8F00S00C1.5000
T9F00S00C2.0000
T10F00S00C2.6670
T11F00S00C3.2000
%
T01
X01452450Y00156700
X01452500Y00182100
Y00207500
X00608300Y00154681
X00582900
X00557500Y00154731
X00587450Y00630000
X00587500Y00655400
Y00680800
T02
X00652500Y00270000
X00480000Y00290000
X00445000Y00255000
X00467500Y00148680
X00352500Y00127500
X00320000Y00187500
X00300086Y00295000
X00202700Y00244404
X00160000Y00130000
X00070521Y00165000
X00115372Y00375000
X00175000Y00370000
Y00417500
X00632395Y00400000
X00715000Y00385000
X00767500Y00370000
X00817500Y00420000
X00890000Y00400000
X00972259Y00420000
X00967500Y00492500
X00937500Y00512500
X00890000Y00532500
X00983719Y00552500
X01035732Y00475000
X01070000Y00405000
X01160000Y00455000
X01127500Y00489509
X01201398Y00502500
X01247500Y00472500
X01292500Y00522500
X01367602Y00637500
X01070000Y00817500
T03
X00393801Y00643598
Y00683598
X00540801
Y00643598
X01210000Y00793801
X01260000
X01310000
X01360000
Y00940801
X01310000
X01260000
X01210000
T04
X01452500Y00291700
Y00317100
Y00342500
X00485400Y00570000
X00460000
X00434600
X01457500Y00556500
Y00531100
X01455000Y00447900
Y00422500
Y00397100
X01457500Y00710000
Y00735400
T05
X00100050Y00090000
X00125450
X00177300
X00202700
T06
X00037500Y00603460
X00262500
T07
X01025400Y00199370
X01000000
X00974600
X00710800Y00890000
X00685400
X00660000
T08
X01046250Y00347500
X00240043Y00305000
X00360000Y00060000
X00432500Y00055187
X00340000Y00501786
X00307500Y00643598
X00727500Y00614609
X01457500Y00632500
Y00802500
T09
X00030000Y00733460
X00210000
Y00850000
X00030000
T10
X01218440Y00160000
X00781560
X00903840Y00850630
X00466960
T11
X01550000Y00050000
X00050000
X01550000Y00950000
X00050000
M30
