G04*
G04 #@! TF.GenerationSoftware,Altium Limited,Altium Designer,23.6.0 (18)*
G04*
G04 Layer_Physical_Order=2*
G04 Layer_Color=16711680*
%FSLAX44Y44*%
%MOMM*%
G71*
G04*
G04 #@! TF.SameCoordinates,77718BC8-0557-480E-A45E-325B9DFD1D5B*
G04*
G04*
G04 #@! TF.FilePolarity,Positive*
G04*
G01*
G75*
%ADD10C,0.2500*%
%ADD15C,0.2540*%
%ADD32R,1.6000X1.6000*%
%ADD33C,1.6000*%
%ADD34C,3.0000*%
%ADD35C,1.8000*%
%ADD36R,1.8000X1.8000*%
%ADD37C,2.6000*%
%ADD38C,5.3340*%
%ADD39C,2.1590*%
%ADD40C,6.0000*%
%ADD41C,4.0000*%
%ADD42R,1.8000X1.8000*%
%ADD43R,1.2000X1.2000*%
%ADD44C,1.2000*%
%ADD45R,1.2000X1.2000*%
%ADD46C,1.2500*%
%ADD47C,0.7500*%
G36*
X1590000Y985000D02*
Y15000D01*
X1585000Y10000D01*
X329788D01*
X329040Y10960D01*
X329040Y11270D01*
Y34275D01*
X153374D01*
Y11270D01*
X153374Y10960D01*
X152626Y10000D01*
X119945D01*
X119197Y10960D01*
X119197Y11270D01*
Y34275D01*
X100960D01*
Y11270D01*
X100960Y10960D01*
X100212Y10000D01*
X15000D01*
X10000Y15000D01*
Y722407D01*
X11270Y722792D01*
X13300Y719755D01*
X16295Y716760D01*
X19816Y714407D01*
X23729Y712786D01*
X27882Y711960D01*
X32118D01*
X36271Y712786D01*
X40184Y714407D01*
X43705Y716760D01*
X46700Y719755D01*
X49053Y723276D01*
X50674Y727189D01*
X51500Y731342D01*
Y735578D01*
X50674Y739731D01*
X49053Y743644D01*
X46700Y747165D01*
X43705Y750160D01*
X40184Y752513D01*
X36271Y754134D01*
X32118Y754960D01*
X27882D01*
X23729Y754134D01*
X19816Y752513D01*
X16295Y750160D01*
X13300Y747165D01*
X11270Y744128D01*
X10000Y744513D01*
Y838947D01*
X11270Y839332D01*
X13300Y836295D01*
X16295Y833300D01*
X19816Y830947D01*
X23729Y829326D01*
X27882Y828500D01*
X32118D01*
X36271Y829326D01*
X40184Y830947D01*
X43705Y833300D01*
X46700Y836295D01*
X49053Y839816D01*
X50674Y843729D01*
X51500Y847882D01*
Y852118D01*
X50674Y856271D01*
X49053Y860184D01*
X46700Y863705D01*
X43705Y866700D01*
X40184Y869053D01*
X36271Y870674D01*
X32118Y871500D01*
X27882D01*
X23729Y870674D01*
X19816Y869053D01*
X16295Y866700D01*
X13300Y863705D01*
X11270Y860668D01*
X10000Y861053D01*
Y985000D01*
X15000Y990000D01*
X1585000D01*
X1590000Y985000D01*
D02*
G37*
%LPC*%
G36*
X1361251Y950301D02*
X1358749D01*
X1356333Y949653D01*
X1354167Y948403D01*
X1352398Y946634D01*
X1351147Y944468D01*
X1350500Y942051D01*
Y939550D01*
X1351147Y937134D01*
X1352398Y934968D01*
X1354167Y933199D01*
X1356333Y931948D01*
X1358749Y931301D01*
X1361251D01*
X1363667Y931948D01*
X1365833Y933199D01*
X1367602Y934968D01*
X1368853Y937134D01*
X1369500Y939550D01*
Y942051D01*
X1368853Y944468D01*
X1367602Y946634D01*
X1365833Y948403D01*
X1363667Y949653D01*
X1361251Y950301D01*
D02*
G37*
G36*
X1311251D02*
X1308749D01*
X1306333Y949653D01*
X1304167Y948403D01*
X1302398Y946634D01*
X1301147Y944468D01*
X1300500Y942051D01*
Y939550D01*
X1301147Y937134D01*
X1302398Y934968D01*
X1304167Y933199D01*
X1306333Y931948D01*
X1308749Y931301D01*
X1311251D01*
X1313667Y931948D01*
X1315833Y933199D01*
X1317602Y934968D01*
X1318853Y937134D01*
X1319500Y939550D01*
Y942051D01*
X1318853Y944468D01*
X1317602Y946634D01*
X1315833Y948403D01*
X1313667Y949653D01*
X1311251Y950301D01*
D02*
G37*
G36*
X1261251D02*
X1258749D01*
X1256333Y949653D01*
X1254167Y948403D01*
X1252398Y946634D01*
X1251148Y944468D01*
X1250500Y942051D01*
Y939550D01*
X1251148Y937134D01*
X1252398Y934968D01*
X1254167Y933199D01*
X1256333Y931948D01*
X1258749Y931301D01*
X1261251D01*
X1263667Y931948D01*
X1265833Y933199D01*
X1267602Y934968D01*
X1268853Y937134D01*
X1269500Y939550D01*
Y942051D01*
X1268853Y944468D01*
X1267602Y946634D01*
X1265833Y948403D01*
X1263667Y949653D01*
X1261251Y950301D01*
D02*
G37*
G36*
X1211251D02*
X1208749D01*
X1206333Y949653D01*
X1204167Y948403D01*
X1202398Y946634D01*
X1201148Y944468D01*
X1200500Y942051D01*
Y939550D01*
X1201148Y937134D01*
X1202398Y934968D01*
X1204167Y933199D01*
X1206333Y931948D01*
X1208749Y931301D01*
X1211251D01*
X1213667Y931948D01*
X1215833Y933199D01*
X1217602Y934968D01*
X1218853Y937134D01*
X1219500Y939550D01*
Y942051D01*
X1218853Y944468D01*
X1217602Y946634D01*
X1215833Y948403D01*
X1213667Y949653D01*
X1211251Y950301D01*
D02*
G37*
G36*
X1552479Y981500D02*
X1547521D01*
X1542624Y980724D01*
X1537908Y979192D01*
X1533490Y976941D01*
X1529479Y974027D01*
X1525973Y970521D01*
X1523059Y966510D01*
X1520808Y962092D01*
X1519276Y957376D01*
X1518500Y952479D01*
Y947521D01*
X1519276Y942624D01*
X1520808Y937908D01*
X1523059Y933490D01*
X1525973Y929479D01*
X1529479Y925973D01*
X1533490Y923059D01*
X1537908Y920808D01*
X1542624Y919276D01*
X1547521Y918500D01*
X1552479D01*
X1557376Y919276D01*
X1562092Y920808D01*
X1566510Y923059D01*
X1570521Y925973D01*
X1574027Y929479D01*
X1576941Y933490D01*
X1579192Y937908D01*
X1580724Y942624D01*
X1581500Y947521D01*
Y952479D01*
X1580724Y957376D01*
X1579192Y962092D01*
X1576941Y966510D01*
X1574027Y970521D01*
X1570521Y974027D01*
X1566510Y976941D01*
X1562092Y979192D01*
X1557376Y980724D01*
X1552479Y981500D01*
D02*
G37*
G36*
X52479D02*
X47521D01*
X42624Y980724D01*
X37908Y979192D01*
X33490Y976941D01*
X29479Y974027D01*
X25973Y970521D01*
X23059Y966510D01*
X20808Y962092D01*
X19276Y957376D01*
X18500Y952479D01*
Y947521D01*
X19276Y942624D01*
X20808Y937908D01*
X23059Y933490D01*
X25973Y929479D01*
X29479Y925973D01*
X33490Y923059D01*
X37908Y920808D01*
X42624Y919276D01*
X47521Y918500D01*
X52479D01*
X57376Y919276D01*
X62092Y920808D01*
X66510Y923059D01*
X70521Y925973D01*
X74027Y929479D01*
X76941Y933490D01*
X79192Y937908D01*
X80724Y942624D01*
X81500Y947521D01*
Y952479D01*
X80724Y957376D01*
X79192Y962092D01*
X76941Y966510D01*
X74027Y970521D01*
X70521Y974027D01*
X66510Y976941D01*
X62092Y979192D01*
X57376Y980724D01*
X52479Y981500D01*
D02*
G37*
G36*
X985120Y977639D02*
X888600D01*
X887625Y977445D01*
X886798Y976892D01*
X886245Y976065D01*
X886051Y975090D01*
Y911590D01*
X886245Y910615D01*
X886798Y909788D01*
X887625Y909235D01*
X888600Y909041D01*
X985120D01*
X986095Y909235D01*
X986922Y909788D01*
X987475Y910615D01*
X987669Y911590D01*
Y975090D01*
X987475Y976065D01*
X986922Y976892D01*
X986095Y977445D01*
X985120Y977639D01*
D02*
G37*
G36*
X482200D02*
X385680D01*
X384705Y977445D01*
X383878Y976892D01*
X383325Y976065D01*
X383131Y975090D01*
Y911590D01*
X383325Y910615D01*
X383878Y909788D01*
X384705Y909235D01*
X385680Y909041D01*
X482200D01*
X483175Y909235D01*
X484002Y909788D01*
X484555Y910615D01*
X484749Y911590D01*
Y975090D01*
X484555Y976065D01*
X484002Y976892D01*
X483175Y977445D01*
X482200Y977639D01*
D02*
G37*
G36*
X712419Y902295D02*
X709181D01*
X706054Y901457D01*
X703251Y899838D01*
X700962Y897549D01*
X699343Y894746D01*
X698757Y892561D01*
X697443D01*
X696857Y894746D01*
X695238Y897549D01*
X692949Y899838D01*
X690146Y901457D01*
X687019Y902295D01*
X683781D01*
X680654Y901457D01*
X677851Y899838D01*
X675562Y897549D01*
X673943Y894746D01*
X673357Y892561D01*
X672043D01*
X671457Y894746D01*
X669838Y897549D01*
X667549Y899838D01*
X664746Y901457D01*
X661619Y902295D01*
X658381D01*
X655254Y901457D01*
X652451Y899838D01*
X650162Y897549D01*
X648543Y894746D01*
X647705Y891619D01*
Y888381D01*
X648543Y885254D01*
X650162Y882451D01*
X652451Y880162D01*
X655254Y878543D01*
X658381Y877705D01*
X661619D01*
X664746Y878543D01*
X667549Y880162D01*
X669838Y882451D01*
X671457Y885254D01*
X672043Y887439D01*
X673357D01*
X673943Y885254D01*
X675562Y882451D01*
X677851Y880162D01*
X680654Y878543D01*
X683781Y877705D01*
X687019D01*
X690146Y878543D01*
X692949Y880162D01*
X695238Y882451D01*
X696857Y885254D01*
X697443Y887439D01*
X698757D01*
X699343Y885254D01*
X700962Y882451D01*
X703251Y880162D01*
X706054Y878543D01*
X709181Y877705D01*
X712419D01*
X715546Y878543D01*
X718349Y880162D01*
X720638Y882451D01*
X722257Y885254D01*
X723095Y888381D01*
Y891619D01*
X722257Y894746D01*
X720638Y897549D01*
X718349Y899838D01*
X715546Y901457D01*
X712419Y902295D01*
D02*
G37*
G36*
X212118Y871500D02*
X207882D01*
X203729Y870674D01*
X199816Y869053D01*
X196295Y866700D01*
X193300Y863705D01*
X190947Y860184D01*
X189326Y856271D01*
X188500Y852118D01*
Y847882D01*
X189326Y843729D01*
X190947Y839816D01*
X193300Y836295D01*
X196295Y833300D01*
X199816Y830947D01*
X203729Y829326D01*
X207882Y828500D01*
X212118D01*
X216271Y829326D01*
X220184Y830947D01*
X223705Y833300D01*
X226700Y836295D01*
X229053Y839816D01*
X230674Y843729D01*
X231500Y847882D01*
Y852118D01*
X230674Y856271D01*
X229053Y860184D01*
X226700Y863705D01*
X223705Y866700D01*
X220184Y869053D01*
X216271Y870674D01*
X212118Y871500D01*
D02*
G37*
G36*
X906057Y878800D02*
X901623D01*
X897243Y878106D01*
X893027Y876736D01*
X889076Y874723D01*
X885489Y872117D01*
X882353Y868981D01*
X879747Y865394D01*
X877734Y861443D01*
X876364Y857226D01*
X875670Y852847D01*
Y848413D01*
X876364Y844034D01*
X877734Y839817D01*
X879747Y835866D01*
X882353Y832279D01*
X885489Y829143D01*
X889076Y826537D01*
X893027Y824524D01*
X897243Y823154D01*
X901623Y822460D01*
X906057D01*
X910436Y823154D01*
X914653Y824524D01*
X918604Y826537D01*
X922191Y829143D01*
X925327Y832279D01*
X927933Y835866D01*
X929946Y839817D01*
X931316Y844034D01*
X932010Y848413D01*
Y852847D01*
X931316Y857226D01*
X929946Y861443D01*
X927933Y865394D01*
X925327Y868981D01*
X922191Y872117D01*
X918604Y874723D01*
X914653Y876736D01*
X910436Y878106D01*
X906057Y878800D01*
D02*
G37*
G36*
X469177D02*
X464743D01*
X460364Y878106D01*
X456147Y876736D01*
X452196Y874723D01*
X448609Y872117D01*
X445473Y868981D01*
X442867Y865394D01*
X440854Y861443D01*
X439484Y857226D01*
X438790Y852847D01*
Y848413D01*
X439484Y844034D01*
X440854Y839817D01*
X442867Y835866D01*
X445473Y832279D01*
X448609Y829143D01*
X452196Y826537D01*
X456147Y824524D01*
X460364Y823154D01*
X464743Y822460D01*
X469177D01*
X473557Y823154D01*
X477774Y824524D01*
X481724Y826537D01*
X485312Y829143D01*
X488447Y832279D01*
X491053Y835866D01*
X493066Y839817D01*
X494436Y844034D01*
X495130Y848413D01*
Y852847D01*
X494436Y857226D01*
X493066Y861443D01*
X491053Y865394D01*
X488447Y868981D01*
X485312Y872117D01*
X481724Y874723D01*
X477774Y876736D01*
X473557Y878106D01*
X469177Y878800D01*
D02*
G37*
G36*
X1071086Y825750D02*
X1071000D01*
Y818500D01*
X1078250D01*
Y818586D01*
X1077688Y820684D01*
X1076602Y822566D01*
X1075066Y824102D01*
X1073184Y825188D01*
X1071086Y825750D01*
D02*
G37*
G36*
X1069000D02*
X1068914D01*
X1066816Y825188D01*
X1064934Y824102D01*
X1063398Y822566D01*
X1062312Y820684D01*
X1061750Y818586D01*
Y818500D01*
X1069000D01*
Y825750D01*
D02*
G37*
G36*
X1375000Y922350D02*
X1345000D01*
X1344025Y922156D01*
X1343198Y921603D01*
X1342645Y920776D01*
X1342451Y919801D01*
Y814801D01*
X1342645Y813825D01*
X1343198Y812998D01*
X1344025Y812446D01*
X1345000Y812252D01*
X1375000D01*
X1375975Y812446D01*
X1376802Y812998D01*
X1377355Y813825D01*
X1377549Y814801D01*
Y919801D01*
X1377355Y920776D01*
X1376802Y921603D01*
X1375975Y922156D01*
X1375000Y922350D01*
D02*
G37*
G36*
X1325000D02*
X1295000D01*
X1294025Y922156D01*
X1293198Y921603D01*
X1292645Y920776D01*
X1292451Y919801D01*
Y814801D01*
X1292645Y813825D01*
X1293198Y812998D01*
X1294025Y812446D01*
X1295000Y812252D01*
X1325000D01*
X1325975Y812446D01*
X1326802Y812998D01*
X1327355Y813825D01*
X1327549Y814801D01*
Y919801D01*
X1327355Y920776D01*
X1326802Y921603D01*
X1325975Y922156D01*
X1325000Y922350D01*
D02*
G37*
G36*
X1275000D02*
X1245000D01*
X1244025Y922156D01*
X1243198Y921603D01*
X1242645Y920776D01*
X1242451Y919801D01*
Y814801D01*
X1242645Y813825D01*
X1243198Y812998D01*
X1244025Y812446D01*
X1245000Y812252D01*
X1275000D01*
X1275975Y812446D01*
X1276802Y812998D01*
X1277355Y813825D01*
X1277549Y814801D01*
Y919801D01*
X1277355Y920776D01*
X1276802Y921603D01*
X1275975Y922156D01*
X1275000Y922350D01*
D02*
G37*
G36*
X1225000D02*
X1195000D01*
X1194025Y922156D01*
X1193198Y921603D01*
X1192645Y920776D01*
X1192451Y919801D01*
Y814801D01*
X1192645Y813825D01*
X1193198Y812998D01*
X1194025Y812446D01*
X1195000Y812252D01*
X1225000D01*
X1225975Y812446D01*
X1226802Y812998D01*
X1227355Y813825D01*
X1227549Y814801D01*
Y919801D01*
X1227355Y920776D01*
X1226802Y921603D01*
X1225975Y922156D01*
X1225000Y922350D01*
D02*
G37*
G36*
X1078250Y816500D02*
X1071000D01*
Y809250D01*
X1071086D01*
X1073184Y809812D01*
X1075066Y810898D01*
X1076602Y812434D01*
X1077688Y814316D01*
X1078250Y816414D01*
Y816500D01*
D02*
G37*
G36*
X1069000D02*
X1061750D01*
Y816414D01*
X1062312Y814316D01*
X1063398Y812434D01*
X1064934Y810898D01*
X1066816Y809812D01*
X1068914Y809250D01*
X1069000D01*
Y816500D01*
D02*
G37*
G36*
X1459125Y819000D02*
X1455875D01*
X1452687Y818366D01*
X1449684Y817122D01*
X1446982Y815316D01*
X1444684Y813018D01*
X1442878Y810316D01*
X1441634Y807313D01*
X1441000Y804125D01*
Y800875D01*
X1441634Y797687D01*
X1442878Y794684D01*
X1444684Y791982D01*
X1446982Y789684D01*
X1449684Y787878D01*
X1452687Y786634D01*
X1455875Y786000D01*
X1459125D01*
X1462313Y786634D01*
X1465316Y787878D01*
X1468018Y789684D01*
X1470316Y791982D01*
X1472122Y794684D01*
X1473366Y797687D01*
X1474000Y800875D01*
Y804125D01*
X1473366Y807313D01*
X1472122Y810316D01*
X1470316Y813018D01*
X1468018Y815316D01*
X1465316Y817122D01*
X1462313Y818366D01*
X1459125Y819000D01*
D02*
G37*
G36*
X1361251Y803301D02*
X1358749D01*
X1356333Y802653D01*
X1354167Y801403D01*
X1352398Y799634D01*
X1351147Y797468D01*
X1350500Y795051D01*
Y792550D01*
X1351147Y790134D01*
X1352398Y787968D01*
X1354167Y786199D01*
X1356333Y784948D01*
X1358749Y784301D01*
X1361251D01*
X1363667Y784948D01*
X1365833Y786199D01*
X1367602Y787968D01*
X1368853Y790134D01*
X1369500Y792550D01*
Y795051D01*
X1368853Y797468D01*
X1367602Y799634D01*
X1365833Y801403D01*
X1363667Y802653D01*
X1361251Y803301D01*
D02*
G37*
G36*
X1311251D02*
X1308749D01*
X1306333Y802653D01*
X1304167Y801403D01*
X1302398Y799634D01*
X1301147Y797468D01*
X1300500Y795051D01*
Y792550D01*
X1301147Y790134D01*
X1302398Y787968D01*
X1304167Y786199D01*
X1306333Y784948D01*
X1308749Y784301D01*
X1311251D01*
X1313667Y784948D01*
X1315833Y786199D01*
X1317602Y787968D01*
X1318853Y790134D01*
X1319500Y792550D01*
Y795051D01*
X1318853Y797468D01*
X1317602Y799634D01*
X1315833Y801403D01*
X1313667Y802653D01*
X1311251Y803301D01*
D02*
G37*
G36*
X1261251D02*
X1258749D01*
X1256333Y802653D01*
X1254167Y801403D01*
X1252398Y799634D01*
X1251148Y797468D01*
X1250500Y795051D01*
Y792550D01*
X1251148Y790134D01*
X1252398Y787968D01*
X1254167Y786199D01*
X1256333Y784948D01*
X1258749Y784301D01*
X1261251D01*
X1263667Y784948D01*
X1265833Y786199D01*
X1267602Y787968D01*
X1268853Y790134D01*
X1269500Y792550D01*
Y795051D01*
X1268853Y797468D01*
X1267602Y799634D01*
X1265833Y801403D01*
X1263667Y802653D01*
X1261251Y803301D01*
D02*
G37*
G36*
X1211251D02*
X1208749D01*
X1206333Y802653D01*
X1204167Y801403D01*
X1202398Y799634D01*
X1201148Y797468D01*
X1200500Y795051D01*
Y792550D01*
X1201148Y790134D01*
X1202398Y787968D01*
X1204167Y786199D01*
X1206333Y784948D01*
X1208749Y784301D01*
X1211251D01*
X1213667Y784948D01*
X1215833Y786199D01*
X1217602Y787968D01*
X1218853Y790134D01*
X1219500Y792550D01*
Y795051D01*
X1218853Y797468D01*
X1217602Y799634D01*
X1215833Y801403D01*
X1213667Y802653D01*
X1211251Y803301D01*
D02*
G37*
G36*
X1468000Y745900D02*
X1447000D01*
Y724900D01*
X1468000D01*
Y745900D01*
D02*
G37*
G36*
X804780Y835399D02*
X723500D01*
X722525Y835205D01*
X721698Y834652D01*
X721145Y833825D01*
X720951Y832850D01*
Y726170D01*
X721145Y725195D01*
X721698Y724368D01*
X722525Y723815D01*
X723500Y723621D01*
X985120D01*
X986095Y723815D01*
X986922Y724368D01*
X987475Y725195D01*
X987669Y726170D01*
Y787130D01*
X987475Y788105D01*
X986922Y788932D01*
X986095Y789485D01*
X985120Y789679D01*
X851556D01*
X806582Y834652D01*
X805755Y835205D01*
X804780Y835399D01*
D02*
G37*
G36*
X647300D02*
X566020D01*
X565045Y835205D01*
X564218Y834652D01*
X519244Y789679D01*
X385680D01*
X384705Y789485D01*
X383878Y788932D01*
X383325Y788105D01*
X383131Y787130D01*
Y726170D01*
X383325Y725195D01*
X383878Y724368D01*
X384705Y723815D01*
X385680Y723621D01*
X647300D01*
X648275Y723815D01*
X649102Y724368D01*
X649655Y725195D01*
X649849Y726170D01*
Y832850D01*
X649655Y833825D01*
X649102Y834652D01*
X648275Y835205D01*
X647300Y835399D01*
D02*
G37*
G36*
X212118Y754960D02*
X207882D01*
X203729Y754134D01*
X199816Y752513D01*
X196295Y750160D01*
X193300Y747165D01*
X190947Y743644D01*
X189326Y739731D01*
X188500Y735578D01*
Y731342D01*
X189326Y727189D01*
X190947Y723276D01*
X193300Y719755D01*
X196295Y716760D01*
X199816Y714407D01*
X203729Y712786D01*
X207882Y711960D01*
X212118D01*
X216271Y712786D01*
X220184Y714407D01*
X223705Y716760D01*
X226700Y719755D01*
X229053Y723276D01*
X230674Y727189D01*
X231500Y731342D01*
Y735578D01*
X230674Y739731D01*
X229053Y743644D01*
X226700Y747165D01*
X223705Y750160D01*
X220184Y752513D01*
X216271Y754134D01*
X212118Y754960D01*
D02*
G37*
G36*
X1458882Y720500D02*
X1456118D01*
X1453447Y719784D01*
X1451053Y718402D01*
X1449098Y716447D01*
X1447716Y714053D01*
X1447000Y711382D01*
Y708618D01*
X1447716Y705947D01*
X1449098Y703553D01*
X1451053Y701598D01*
X1453447Y700216D01*
X1456118Y699500D01*
X1458882D01*
X1461553Y700216D01*
X1463947Y701598D01*
X1465902Y703553D01*
X1467284Y705947D01*
X1468000Y708618D01*
Y711382D01*
X1467284Y714053D01*
X1465902Y716447D01*
X1463947Y718402D01*
X1461553Y719784D01*
X1458882Y720500D01*
D02*
G37*
G36*
X542051Y693098D02*
X539550D01*
X537134Y692451D01*
X534968Y691200D01*
X533199Y689431D01*
X531948Y687265D01*
X531301Y684849D01*
Y682347D01*
X531948Y679931D01*
X533199Y677765D01*
X534968Y675996D01*
X537134Y674745D01*
X539550Y674098D01*
X542051D01*
X544468Y674745D01*
X546634Y675996D01*
X548403Y677765D01*
X549653Y679931D01*
X550301Y682347D01*
Y684849D01*
X549653Y687265D01*
X548403Y689431D01*
X546634Y691200D01*
X544468Y692451D01*
X542051Y693098D01*
D02*
G37*
G36*
X395051D02*
X392550D01*
X390134Y692451D01*
X387968Y691200D01*
X386199Y689431D01*
X384948Y687265D01*
X384301Y684849D01*
Y682347D01*
X384948Y679931D01*
X386199Y677765D01*
X387968Y675996D01*
X390134Y674745D01*
X392550Y674098D01*
X395051D01*
X397468Y674745D01*
X399634Y675996D01*
X401403Y677765D01*
X402653Y679931D01*
X403301Y682347D01*
Y684849D01*
X402653Y687265D01*
X401403Y689431D01*
X399634Y691200D01*
X397468Y692451D01*
X395051Y693098D01*
D02*
G37*
G36*
X595000Y688300D02*
X580000D01*
Y673300D01*
X595000D01*
Y688300D01*
D02*
G37*
G36*
X519801Y701147D02*
X414801D01*
X413825Y700953D01*
X412998Y700400D01*
X412446Y699574D01*
X412252Y698598D01*
Y668598D01*
X412446Y667623D01*
X412998Y666796D01*
X413825Y666243D01*
X414801Y666049D01*
X519801D01*
X520776Y666243D01*
X521603Y666796D01*
X522156Y667623D01*
X522350Y668598D01*
Y698598D01*
X522156Y699574D01*
X521603Y700400D01*
X520776Y700953D01*
X519801Y701147D01*
D02*
G37*
G36*
X588487Y662900D02*
X586513D01*
X584605Y662389D01*
X582895Y661402D01*
X581498Y660005D01*
X580511Y658295D01*
X580000Y656387D01*
Y654413D01*
X580511Y652505D01*
X581498Y650795D01*
X582895Y649398D01*
X584605Y648411D01*
X586513Y647900D01*
X588487D01*
X590395Y648411D01*
X592105Y649398D01*
X593502Y650795D01*
X594489Y652505D01*
X595000Y654413D01*
Y656387D01*
X594489Y658295D01*
X593502Y660005D01*
X592105Y661402D01*
X590395Y662389D01*
X588487Y662900D01*
D02*
G37*
G36*
X1368688Y645750D02*
X1368602D01*
Y638500D01*
X1375852D01*
Y638586D01*
X1375290Y640684D01*
X1374203Y642566D01*
X1372668Y644102D01*
X1370786Y645188D01*
X1368688Y645750D01*
D02*
G37*
G36*
X1366602D02*
X1366516D01*
X1364418Y645188D01*
X1362536Y644102D01*
X1361000Y642566D01*
X1359914Y640684D01*
X1359352Y638586D01*
Y638500D01*
X1366602D01*
Y645750D01*
D02*
G37*
G36*
X542051Y653098D02*
X539550D01*
X537134Y652451D01*
X534968Y651200D01*
X533199Y649431D01*
X531948Y647265D01*
X531301Y644849D01*
Y642347D01*
X531948Y639931D01*
X533199Y637765D01*
X534968Y635996D01*
X537134Y634745D01*
X539550Y634098D01*
X542051D01*
X544468Y634745D01*
X546634Y635996D01*
X548403Y637765D01*
X549653Y639931D01*
X550301Y642347D01*
Y644849D01*
X549653Y647265D01*
X548403Y649431D01*
X546634Y651200D01*
X544468Y652451D01*
X542051Y653098D01*
D02*
G37*
G36*
X395051D02*
X392550D01*
X390134Y652451D01*
X387968Y651200D01*
X386199Y649431D01*
X384948Y647265D01*
X384301Y644849D01*
Y642347D01*
X384948Y639931D01*
X386199Y637765D01*
X387968Y635996D01*
X390134Y634745D01*
X392550Y634098D01*
X395051D01*
X397468Y634745D01*
X399634Y635996D01*
X401403Y637765D01*
X402653Y639931D01*
X403301Y642347D01*
Y644849D01*
X402653Y647265D01*
X401403Y649431D01*
X399634Y651200D01*
X397468Y652451D01*
X395051Y653098D01*
D02*
G37*
G36*
X1375852Y636500D02*
X1368602D01*
Y629250D01*
X1368688D01*
X1370786Y629812D01*
X1372668Y630898D01*
X1374203Y632434D01*
X1375290Y634316D01*
X1375852Y636414D01*
Y636500D01*
D02*
G37*
G36*
X1366602D02*
X1359352D01*
Y636414D01*
X1359914Y634316D01*
X1361000Y632434D01*
X1362536Y630898D01*
X1364418Y629812D01*
X1366516Y629250D01*
X1366602D01*
Y636500D01*
D02*
G37*
G36*
X309125Y660098D02*
X305875D01*
X302687Y659464D01*
X299684Y658220D01*
X296982Y656414D01*
X294684Y654116D01*
X292878Y651414D01*
X291634Y648411D01*
X291000Y645223D01*
Y641973D01*
X291634Y638785D01*
X292878Y635782D01*
X294684Y633080D01*
X296982Y630782D01*
X299684Y628976D01*
X302687Y627732D01*
X305875Y627098D01*
X309125D01*
X312313Y627732D01*
X315316Y628976D01*
X318018Y630782D01*
X320316Y633080D01*
X322122Y635782D01*
X323366Y638785D01*
X324000Y641973D01*
Y645223D01*
X323366Y648411D01*
X322122Y651414D01*
X320316Y654116D01*
X318018Y656414D01*
X315316Y658220D01*
X312313Y659464D01*
X309125Y660098D01*
D02*
G37*
G36*
X519801Y661147D02*
X414801D01*
X413825Y660953D01*
X412998Y660400D01*
X412446Y659574D01*
X412252Y658598D01*
Y628598D01*
X412446Y627623D01*
X412998Y626796D01*
X413825Y626243D01*
X414801Y626049D01*
X519801D01*
X520776Y626243D01*
X521603Y626796D01*
X522156Y627623D01*
X522350Y628598D01*
Y658598D01*
X522156Y659574D01*
X521603Y660400D01*
X520776Y660953D01*
X519801Y661147D01*
D02*
G37*
G36*
X588437Y637500D02*
X586463D01*
X584555Y636989D01*
X582845Y636002D01*
X581449Y634605D01*
X580461Y632895D01*
X579950Y630987D01*
Y629013D01*
X580461Y627105D01*
X581449Y625395D01*
X582845Y623998D01*
X584555Y623011D01*
X586463Y622500D01*
X588437D01*
X590345Y623011D01*
X592055Y623998D01*
X593451Y625395D01*
X594439Y627105D01*
X594950Y629013D01*
Y630987D01*
X594439Y632895D01*
X593451Y634605D01*
X592055Y636002D01*
X590345Y636989D01*
X588437Y637500D01*
D02*
G37*
G36*
X1459125Y649000D02*
X1455875D01*
X1452687Y648366D01*
X1449684Y647122D01*
X1446982Y645316D01*
X1444684Y643018D01*
X1442878Y640316D01*
X1441634Y637313D01*
X1441000Y634125D01*
Y630875D01*
X1441634Y627687D01*
X1442878Y624684D01*
X1444684Y621982D01*
X1446982Y619684D01*
X1449684Y617878D01*
X1452687Y616634D01*
X1455875Y616000D01*
X1459125D01*
X1462313Y616634D01*
X1465316Y617878D01*
X1468018Y619684D01*
X1470316Y621982D01*
X1472122Y624684D01*
X1473366Y627687D01*
X1474000Y630875D01*
Y634125D01*
X1473366Y637313D01*
X1472122Y640316D01*
X1470316Y643018D01*
X1468018Y645316D01*
X1465316Y647122D01*
X1462313Y648366D01*
X1459125Y649000D01*
D02*
G37*
G36*
X729125Y631109D02*
X725875D01*
X722687Y630475D01*
X719684Y629231D01*
X716982Y627426D01*
X714684Y625127D01*
X712878Y622425D01*
X711634Y619422D01*
X711000Y616234D01*
Y612984D01*
X711634Y609796D01*
X712878Y606794D01*
X714684Y604091D01*
X716982Y601793D01*
X719684Y599987D01*
X722687Y598743D01*
X725875Y598109D01*
X729125D01*
X732313Y598743D01*
X735316Y599987D01*
X738018Y601793D01*
X740316Y604091D01*
X742122Y606794D01*
X743366Y609796D01*
X744000Y612984D01*
Y616234D01*
X743366Y619422D01*
X742122Y622425D01*
X740316Y625127D01*
X738018Y627426D01*
X735316Y629231D01*
X732313Y630475D01*
X729125Y631109D01*
D02*
G37*
G36*
X264409Y617960D02*
X260591D01*
X256903Y616972D01*
X253597Y615063D01*
X250897Y612363D01*
X248988Y609057D01*
X248000Y605369D01*
Y601551D01*
X248988Y597863D01*
X250897Y594557D01*
X253597Y591857D01*
X256903Y589948D01*
X260591Y588960D01*
X264409D01*
X268097Y589948D01*
X271403Y591857D01*
X274103Y594557D01*
X276012Y597863D01*
X277000Y601551D01*
Y605369D01*
X276012Y609057D01*
X274103Y612363D01*
X271403Y615063D01*
X268097Y616972D01*
X264409Y617960D01*
D02*
G37*
G36*
X39409D02*
X35591D01*
X31903Y616972D01*
X28597Y615063D01*
X25897Y612363D01*
X23988Y609057D01*
X23000Y605369D01*
Y601551D01*
X23988Y597863D01*
X25897Y594557D01*
X28597Y591857D01*
X31903Y589948D01*
X35591Y588960D01*
X39409D01*
X43097Y589948D01*
X46403Y591857D01*
X49103Y594557D01*
X51012Y597863D01*
X52000Y601551D01*
Y605369D01*
X51012Y609057D01*
X49103Y612363D01*
X46403Y615063D01*
X43097Y616972D01*
X39409Y617960D01*
D02*
G37*
G36*
X486782Y580500D02*
X484018D01*
X481347Y579784D01*
X478953Y578402D01*
X476998Y576447D01*
X475616Y574053D01*
X474900Y571382D01*
Y568618D01*
X475616Y565947D01*
X476998Y563553D01*
X478953Y561598D01*
X481347Y560216D01*
X484018Y559500D01*
X486782D01*
X489453Y560216D01*
X491847Y561598D01*
X493802Y563553D01*
X495184Y565947D01*
X495900Y568618D01*
Y571382D01*
X495184Y574053D01*
X493802Y576447D01*
X491847Y578402D01*
X489453Y579784D01*
X486782Y580500D01*
D02*
G37*
G36*
X461382D02*
X458618D01*
X455947Y579784D01*
X453553Y578402D01*
X451598Y576447D01*
X450216Y574053D01*
X449500Y571382D01*
Y568618D01*
X450216Y565947D01*
X451598Y563553D01*
X453553Y561598D01*
X455947Y560216D01*
X458618Y559500D01*
X461382D01*
X464053Y560216D01*
X466447Y561598D01*
X468402Y563553D01*
X469784Y565947D01*
X470500Y568618D01*
Y571382D01*
X469784Y574053D01*
X468402Y576447D01*
X466447Y578402D01*
X464053Y579784D01*
X461382Y580500D01*
D02*
G37*
G36*
X445100D02*
X424100D01*
Y559500D01*
X445100D01*
Y580500D01*
D02*
G37*
G36*
X984805Y560750D02*
X984719D01*
Y553500D01*
X991969D01*
Y553586D01*
X991407Y555684D01*
X990321Y557566D01*
X988785Y559102D01*
X986904Y560188D01*
X984805Y560750D01*
D02*
G37*
G36*
X982719D02*
X982633D01*
X980535Y560188D01*
X978653Y559102D01*
X977117Y557566D01*
X976031Y555684D01*
X975469Y553586D01*
Y553500D01*
X982719D01*
Y560750D01*
D02*
G37*
G36*
X991969Y551500D02*
X984719D01*
Y544250D01*
X984805D01*
X986904Y544812D01*
X988785Y545898D01*
X990321Y547434D01*
X991407Y549316D01*
X991969Y551414D01*
Y551500D01*
D02*
G37*
G36*
X982719D02*
X975469D01*
Y551414D01*
X976031Y549316D01*
X977117Y547434D01*
X978653Y545898D01*
X980535Y544812D01*
X982633Y544250D01*
X982719D01*
Y551500D01*
D02*
G37*
G36*
X891086Y540750D02*
X891000D01*
Y533500D01*
X898250D01*
Y533586D01*
X897688Y535684D01*
X896602Y537566D01*
X895066Y539102D01*
X893184Y540188D01*
X891086Y540750D01*
D02*
G37*
G36*
X889000D02*
X888914D01*
X886816Y540188D01*
X884934Y539102D01*
X883398Y537566D01*
X882312Y535684D01*
X881750Y533586D01*
Y533500D01*
X889000D01*
Y540750D01*
D02*
G37*
G36*
X1458948Y542100D02*
X1458500D01*
Y532100D01*
X1468500D01*
Y532548D01*
X1467750Y535346D01*
X1466302Y537854D01*
X1464254Y539902D01*
X1461746Y541350D01*
X1458948Y542100D01*
D02*
G37*
G36*
X1456500D02*
X1456052D01*
X1453254Y541350D01*
X1450746Y539902D01*
X1448698Y537854D01*
X1447250Y535346D01*
X1446500Y532548D01*
Y532100D01*
X1456500D01*
Y542100D01*
D02*
G37*
G36*
X1468000Y567000D02*
X1447000D01*
Y549965D01*
X1422339Y525304D01*
X1299772D01*
X1299722Y525491D01*
X1298702Y527259D01*
X1297259Y528702D01*
X1295491Y529722D01*
X1293520Y530250D01*
X1291480D01*
X1289509Y529722D01*
X1287741Y528702D01*
X1286299Y527259D01*
X1285278Y525491D01*
X1284750Y523520D01*
Y521480D01*
X1285278Y519509D01*
X1286299Y517741D01*
X1287741Y516298D01*
X1289509Y515278D01*
X1291480Y514750D01*
X1293520D01*
X1295491Y515278D01*
X1297259Y516298D01*
X1298702Y517741D01*
X1299722Y519509D01*
X1299772Y519696D01*
X1423500D01*
X1424573Y519910D01*
X1425483Y520517D01*
X1450965Y546000D01*
X1468000D01*
Y567000D01*
D02*
G37*
G36*
X898250Y531500D02*
X891000D01*
Y524250D01*
X891086D01*
X893184Y524812D01*
X895066Y525898D01*
X896602Y527434D01*
X897688Y529316D01*
X898250Y531414D01*
Y531500D01*
D02*
G37*
G36*
X889000D02*
X881750D01*
Y531414D01*
X882312Y529316D01*
X883398Y527434D01*
X884934Y525898D01*
X886816Y524812D01*
X888914Y524250D01*
X889000D01*
Y531500D01*
D02*
G37*
G36*
X1468500Y530100D02*
X1458500D01*
Y520100D01*
X1458948D01*
X1461746Y520850D01*
X1464254Y522298D01*
X1466302Y524346D01*
X1467750Y526854D01*
X1468500Y529652D01*
Y530100D01*
D02*
G37*
G36*
X1456500D02*
X1446500D01*
Y529652D01*
X1447250Y526854D01*
X1448698Y524346D01*
X1450746Y522298D01*
X1453254Y520850D01*
X1456052Y520100D01*
X1456500D01*
Y530100D01*
D02*
G37*
G36*
X1202484Y510750D02*
X1202398D01*
Y503500D01*
X1209648D01*
Y503586D01*
X1209085Y505684D01*
X1207999Y507566D01*
X1206463Y509102D01*
X1204582Y510188D01*
X1202484Y510750D01*
D02*
G37*
G36*
X1200398D02*
X1200312D01*
X1198213Y510188D01*
X1196332Y509102D01*
X1194796Y507566D01*
X1193710Y505684D01*
X1193148Y503586D01*
Y503500D01*
X1200398D01*
Y510750D01*
D02*
G37*
G36*
X1147500Y505304D02*
X977500D01*
X976427Y505090D01*
X975517Y504483D01*
X970659Y499625D01*
X970491Y499722D01*
X968520Y500250D01*
X966480D01*
X964509Y499722D01*
X962741Y498702D01*
X961299Y497259D01*
X960278Y495491D01*
X959750Y493520D01*
Y491480D01*
X960278Y489509D01*
X961299Y487741D01*
X962741Y486298D01*
X964509Y485278D01*
X966480Y484750D01*
X968520D01*
X970491Y485278D01*
X972259Y486298D01*
X973701Y487741D01*
X974722Y489509D01*
X975250Y491480D01*
Y493520D01*
X974722Y495491D01*
X974625Y495659D01*
X978661Y499696D01*
X1146339D01*
X1175517Y470517D01*
X1176427Y469910D01*
X1177500Y469696D01*
X1240228D01*
X1240278Y469509D01*
X1241299Y467741D01*
X1242741Y466298D01*
X1244509Y465278D01*
X1246480Y464750D01*
X1248520D01*
X1250491Y465278D01*
X1252259Y466298D01*
X1253701Y467741D01*
X1254722Y469509D01*
X1255250Y471480D01*
Y473520D01*
X1254722Y475491D01*
X1253701Y477259D01*
X1252259Y478702D01*
X1250491Y479722D01*
X1248520Y480250D01*
X1246480D01*
X1244509Y479722D01*
X1242741Y478702D01*
X1241299Y477259D01*
X1240278Y475491D01*
X1240228Y475304D01*
X1178661D01*
X1149483Y504483D01*
X1148573Y505090D01*
X1147500Y505304D01*
D02*
G37*
G36*
X1209648Y501500D02*
X1202398D01*
Y494250D01*
X1202484D01*
X1204582Y494812D01*
X1206463Y495898D01*
X1207999Y497434D01*
X1209085Y499316D01*
X1209648Y501414D01*
Y501500D01*
D02*
G37*
G36*
X1200398D02*
X1193148D01*
Y501414D01*
X1193710Y499316D01*
X1194796Y497434D01*
X1196332Y495898D01*
X1198213Y494812D01*
X1200312Y494250D01*
X1200398D01*
Y501500D01*
D02*
G37*
G36*
X1128586Y497759D02*
X1128500D01*
Y490509D01*
X1135750D01*
Y490595D01*
X1135188Y492693D01*
X1134102Y494574D01*
X1132566Y496110D01*
X1130684Y497196D01*
X1128586Y497759D01*
D02*
G37*
G36*
X1126500D02*
X1126414D01*
X1124316Y497196D01*
X1122434Y496110D01*
X1120898Y494574D01*
X1119812Y492693D01*
X1119250Y490595D01*
Y490509D01*
X1126500D01*
Y497759D01*
D02*
G37*
G36*
X341625Y518285D02*
X338375D01*
X335187Y517651D01*
X332184Y516408D01*
X329482Y514602D01*
X327184Y512304D01*
X325378Y509601D01*
X324134Y506598D01*
X323500Y503411D01*
Y500160D01*
X324134Y496973D01*
X325378Y493970D01*
X327184Y491267D01*
X329482Y488969D01*
X332184Y487163D01*
X335187Y485920D01*
X338375Y485285D01*
X341625D01*
X344813Y485920D01*
X347816Y487163D01*
X350518Y488969D01*
X352816Y491267D01*
X354622Y493970D01*
X355866Y496973D01*
X356500Y500160D01*
Y503411D01*
X355866Y506598D01*
X354622Y509601D01*
X352816Y512304D01*
X350518Y514602D01*
X347816Y516408D01*
X344813Y517651D01*
X341625Y518285D01*
D02*
G37*
G36*
X1135750Y488509D02*
X1128500D01*
Y481259D01*
X1128586D01*
X1130684Y481821D01*
X1132566Y482907D01*
X1134102Y484443D01*
X1135188Y486324D01*
X1135750Y488423D01*
Y488509D01*
D02*
G37*
G36*
X1126500D02*
X1119250D01*
Y488423D01*
X1119812Y486324D01*
X1120898Y484443D01*
X1122434Y482907D01*
X1124316Y481821D01*
X1126414Y481259D01*
X1126500D01*
Y488509D01*
D02*
G37*
G36*
X973345Y428250D02*
X973259D01*
Y421000D01*
X980509D01*
Y421086D01*
X979946Y423184D01*
X978860Y425066D01*
X977324Y426602D01*
X975443Y427688D01*
X973345Y428250D01*
D02*
G37*
G36*
X971259D02*
X971172D01*
X969074Y427688D01*
X967193Y426602D01*
X965657Y425066D01*
X964571Y423184D01*
X964009Y421086D01*
Y421000D01*
X971259D01*
Y428250D01*
D02*
G37*
G36*
X818586D02*
X818500D01*
Y421000D01*
X825750D01*
Y421086D01*
X825188Y423184D01*
X824102Y425066D01*
X822566Y426602D01*
X820684Y427688D01*
X818586Y428250D01*
D02*
G37*
G36*
X816500D02*
X816414D01*
X814316Y427688D01*
X812434Y426602D01*
X810898Y425066D01*
X809812Y423184D01*
X809250Y421086D01*
Y421000D01*
X816500D01*
Y428250D01*
D02*
G37*
G36*
X1036752Y482750D02*
X1034712D01*
X1032740Y482222D01*
X1030973Y481202D01*
X1029530Y479759D01*
X1028510Y477991D01*
X1027982Y476020D01*
Y473980D01*
X1028510Y472009D01*
X1029530Y470241D01*
X1030973Y468798D01*
X1032740Y467778D01*
X1034712Y467250D01*
X1036752D01*
X1038723Y467778D01*
X1040490Y468798D01*
X1041933Y470241D01*
X1042954Y472009D01*
X1043004Y472196D01*
X1126111D01*
X1154289Y444017D01*
X1155199Y443410D01*
X1156272Y443196D01*
X1297039D01*
X1442000Y298235D01*
Y281200D01*
X1463000D01*
Y302200D01*
X1445965D01*
X1300183Y447983D01*
X1299273Y448590D01*
X1298200Y448804D01*
X1166423D01*
X1165937Y449977D01*
X1166201Y450241D01*
X1167222Y452009D01*
X1167272Y452196D01*
X1421339D01*
X1428017Y445517D01*
X1428017Y445517D01*
X1445862Y427673D01*
X1445216Y426553D01*
X1444500Y423882D01*
Y421118D01*
X1445216Y418447D01*
X1446598Y416053D01*
X1448553Y414098D01*
X1450947Y412716D01*
X1453618Y412000D01*
X1456382D01*
X1459053Y412716D01*
X1461447Y414098D01*
X1463402Y416053D01*
X1464784Y418447D01*
X1465500Y421118D01*
Y423882D01*
X1464784Y426553D01*
X1463402Y428947D01*
X1461447Y430902D01*
X1459053Y432284D01*
X1456382Y433000D01*
X1453618D01*
X1450947Y432284D01*
X1449827Y431638D01*
X1445335Y436130D01*
X1445861Y437400D01*
X1465500D01*
Y458400D01*
X1444500D01*
Y438761D01*
X1443230Y438235D01*
X1431983Y449482D01*
X1431983Y449483D01*
X1424483Y456983D01*
X1423573Y457590D01*
X1422500Y457804D01*
X1167272D01*
X1167222Y457991D01*
X1166201Y459759D01*
X1164759Y461202D01*
X1162991Y462222D01*
X1161020Y462750D01*
X1158980D01*
X1157009Y462222D01*
X1155241Y461202D01*
X1153799Y459759D01*
X1152778Y457991D01*
X1152250Y456020D01*
Y455647D01*
X1151077Y455161D01*
X1129255Y476983D01*
X1128345Y477590D01*
X1127272Y477804D01*
X1043004D01*
X1042954Y477991D01*
X1041933Y479759D01*
X1040490Y481202D01*
X1038723Y482222D01*
X1036752Y482750D01*
D02*
G37*
G36*
X980509Y419000D02*
X973259D01*
Y411750D01*
X973345D01*
X975443Y412312D01*
X977324Y413398D01*
X978860Y414934D01*
X979946Y416816D01*
X980509Y418914D01*
Y419000D01*
D02*
G37*
G36*
X971259D02*
X964009D01*
Y418914D01*
X964571Y416816D01*
X965657Y414934D01*
X967193Y413398D01*
X969074Y412312D01*
X971172Y411750D01*
X971259D01*
Y419000D01*
D02*
G37*
G36*
X825750D02*
X818500D01*
Y411750D01*
X818586D01*
X820684Y412312D01*
X822566Y413398D01*
X824102Y414934D01*
X825188Y416816D01*
X825750Y418914D01*
Y419000D01*
D02*
G37*
G36*
X816500D02*
X809250D01*
Y418914D01*
X809812Y416816D01*
X810898Y414934D01*
X812434Y413398D01*
X814316Y412312D01*
X816414Y411750D01*
X816500D01*
Y419000D01*
D02*
G37*
G36*
X1071086Y413250D02*
X1071000D01*
Y406000D01*
X1078250D01*
Y406086D01*
X1077688Y408184D01*
X1076602Y410066D01*
X1075066Y411602D01*
X1073184Y412688D01*
X1071086Y413250D01*
D02*
G37*
G36*
X1069000D02*
X1068914D01*
X1066816Y412688D01*
X1064934Y411602D01*
X1063398Y410066D01*
X1062312Y408184D01*
X1061750Y406086D01*
Y406000D01*
X1069000D01*
Y413250D01*
D02*
G37*
G36*
X891086Y408250D02*
X891000D01*
Y401000D01*
X898250D01*
Y401086D01*
X897688Y403184D01*
X896602Y405066D01*
X895066Y406602D01*
X893184Y407688D01*
X891086Y408250D01*
D02*
G37*
G36*
X889000D02*
X888914D01*
X886816Y407688D01*
X884934Y406602D01*
X883398Y405066D01*
X882312Y403184D01*
X881750Y401086D01*
Y401000D01*
X889000D01*
Y408250D01*
D02*
G37*
G36*
X633481D02*
X633395D01*
Y401000D01*
X640645D01*
Y401086D01*
X640083Y403184D01*
X638997Y405066D01*
X637461Y406602D01*
X635579Y407688D01*
X633481Y408250D01*
D02*
G37*
G36*
X631395D02*
X631309D01*
X629211Y407688D01*
X627329Y406602D01*
X625793Y405066D01*
X624707Y403184D01*
X624145Y401086D01*
Y401000D01*
X631395D01*
Y408250D01*
D02*
G37*
G36*
X1456448Y408100D02*
X1456000D01*
Y398100D01*
X1466000D01*
Y398548D01*
X1465250Y401346D01*
X1463802Y403854D01*
X1461754Y405902D01*
X1459246Y407350D01*
X1456448Y408100D01*
D02*
G37*
G36*
X1454000D02*
X1453552D01*
X1450754Y407350D01*
X1448246Y405902D01*
X1446198Y403854D01*
X1444750Y401346D01*
X1444000Y398548D01*
Y398100D01*
X1454000D01*
Y408100D01*
D02*
G37*
G36*
X1078250Y404000D02*
X1071000D01*
Y396750D01*
X1071086D01*
X1073184Y397312D01*
X1075066Y398398D01*
X1076602Y399934D01*
X1077688Y401816D01*
X1078250Y403914D01*
Y404000D01*
D02*
G37*
G36*
X1069000D02*
X1061750D01*
Y403914D01*
X1062312Y401816D01*
X1063398Y399934D01*
X1064934Y398398D01*
X1066816Y397312D01*
X1068914Y396750D01*
X1069000D01*
Y404000D01*
D02*
G37*
G36*
X898250Y399000D02*
X891000D01*
Y391750D01*
X891086D01*
X893184Y392312D01*
X895066Y393398D01*
X896602Y394934D01*
X897688Y396816D01*
X898250Y398914D01*
Y399000D01*
D02*
G37*
G36*
X889000D02*
X881750D01*
Y398914D01*
X882312Y396816D01*
X883398Y394934D01*
X884934Y393398D01*
X886816Y392312D01*
X888914Y391750D01*
X889000D01*
Y399000D01*
D02*
G37*
G36*
X640645D02*
X633395D01*
Y391750D01*
X633481D01*
X635579Y392312D01*
X637461Y393398D01*
X638997Y394934D01*
X640083Y396816D01*
X640645Y398914D01*
Y399000D01*
D02*
G37*
G36*
X631395D02*
X624145D01*
Y398914D01*
X624707Y396816D01*
X625793Y394934D01*
X627329Y393398D01*
X629211Y392312D01*
X631309Y391750D01*
X631395D01*
Y399000D01*
D02*
G37*
G36*
X1466000Y396100D02*
X1456000D01*
Y386100D01*
X1456448D01*
X1459246Y386850D01*
X1461754Y388298D01*
X1463802Y390346D01*
X1465250Y392854D01*
X1466000Y395652D01*
Y396100D01*
D02*
G37*
G36*
X1454000D02*
X1444000D01*
Y395652D01*
X1444750Y392854D01*
X1446198Y390346D01*
X1448246Y388298D01*
X1450754Y386850D01*
X1453552Y386100D01*
X1454000D01*
Y396100D01*
D02*
G37*
G36*
X716086Y393250D02*
X716000D01*
Y386000D01*
X723250D01*
Y386086D01*
X722688Y388184D01*
X721602Y390066D01*
X720066Y391602D01*
X718184Y392688D01*
X716086Y393250D01*
D02*
G37*
G36*
X714000D02*
X713914D01*
X711816Y392688D01*
X709934Y391602D01*
X708398Y390066D01*
X707312Y388184D01*
X706750Y386086D01*
Y386000D01*
X714000D01*
Y393250D01*
D02*
G37*
G36*
X723250Y384000D02*
X716000D01*
Y376750D01*
X716086D01*
X718184Y377312D01*
X720066Y378398D01*
X721602Y379934D01*
X722688Y381816D01*
X723250Y383914D01*
Y384000D01*
D02*
G37*
G36*
X714000D02*
X706750D01*
Y383914D01*
X707312Y381816D01*
X708398Y379934D01*
X709934Y378398D01*
X711816Y377312D01*
X713914Y376750D01*
X714000D01*
Y384000D01*
D02*
G37*
G36*
X116458Y383250D02*
X116372D01*
Y376000D01*
X123622D01*
Y376086D01*
X123060Y378184D01*
X121974Y380066D01*
X120438Y381602D01*
X118556Y382688D01*
X116458Y383250D01*
D02*
G37*
G36*
X114372D02*
X114286D01*
X112188Y382688D01*
X110306Y381602D01*
X108770Y380066D01*
X107684Y378184D01*
X107122Y376086D01*
Y376000D01*
X114372D01*
Y383250D01*
D02*
G37*
G36*
X768586Y378250D02*
X768500D01*
Y371000D01*
X775750D01*
Y371086D01*
X775188Y373184D01*
X774102Y375066D01*
X772566Y376602D01*
X770684Y377688D01*
X768586Y378250D01*
D02*
G37*
G36*
X766500D02*
X766414D01*
X764316Y377688D01*
X762434Y376602D01*
X760898Y375066D01*
X759812Y373184D01*
X759250Y371086D01*
Y371000D01*
X766500D01*
Y378250D01*
D02*
G37*
G36*
X123622Y374000D02*
X116372D01*
Y366750D01*
X116458D01*
X118556Y367312D01*
X120438Y368398D01*
X121974Y369934D01*
X123060Y371816D01*
X123622Y373914D01*
Y374000D01*
D02*
G37*
G36*
X114372D02*
X107122D01*
Y373914D01*
X107684Y371816D01*
X108770Y369934D01*
X110306Y368398D01*
X112188Y367312D01*
X114286Y366750D01*
X114372D01*
Y374000D01*
D02*
G37*
G36*
X176020Y425250D02*
X173980D01*
X172009Y424722D01*
X170241Y423702D01*
X168799Y422259D01*
X167778Y420491D01*
X167250Y418520D01*
Y416480D01*
X167778Y414509D01*
X168799Y412741D01*
X169647Y411893D01*
Y375607D01*
X168799Y374759D01*
X167778Y372991D01*
X167250Y371020D01*
Y368980D01*
X167778Y367009D01*
X168799Y365241D01*
X170241Y363798D01*
X172009Y362778D01*
X173980Y362250D01*
X176020D01*
X177991Y362778D01*
X179759Y363798D01*
X181201Y365241D01*
X182222Y367009D01*
X182750Y368980D01*
Y371020D01*
X182222Y372991D01*
X181201Y374759D01*
X180353Y375607D01*
Y411893D01*
X181201Y412741D01*
X182222Y414509D01*
X182750Y416480D01*
Y418520D01*
X182222Y420491D01*
X181201Y422259D01*
X179759Y423702D01*
X177991Y424722D01*
X176020Y425250D01*
D02*
G37*
G36*
X775750Y369000D02*
X768500D01*
Y361750D01*
X768586D01*
X770684Y362312D01*
X772566Y363398D01*
X774102Y364934D01*
X775188Y366816D01*
X775750Y368914D01*
Y369000D01*
D02*
G37*
G36*
X766500D02*
X759250D01*
Y368914D01*
X759812Y366816D01*
X760898Y364934D01*
X762434Y363398D01*
X764316Y362312D01*
X766414Y361750D01*
X766500D01*
Y369000D01*
D02*
G37*
G36*
X1453882Y353000D02*
X1451118D01*
X1448447Y352284D01*
X1446053Y350902D01*
X1444098Y348947D01*
X1442716Y346553D01*
X1442000Y343882D01*
Y341118D01*
X1442716Y338447D01*
X1444098Y336053D01*
X1446053Y334098D01*
X1448447Y332716D01*
X1451118Y332000D01*
X1453882D01*
X1456553Y332716D01*
X1458947Y334098D01*
X1460902Y336053D01*
X1462284Y338447D01*
X1463000Y341118D01*
Y343882D01*
X1462284Y346553D01*
X1460902Y348947D01*
X1458947Y350902D01*
X1456553Y352284D01*
X1453882Y353000D01*
D02*
G37*
G36*
X1047875Y364000D02*
X1044625D01*
X1041437Y363366D01*
X1038434Y362122D01*
X1035732Y360316D01*
X1033434Y358018D01*
X1031628Y355316D01*
X1030384Y352313D01*
X1029750Y349125D01*
Y345875D01*
X1030384Y342687D01*
X1031628Y339684D01*
X1033434Y336982D01*
X1035732Y334684D01*
X1038434Y332878D01*
X1041437Y331634D01*
X1044625Y331000D01*
X1047875D01*
X1051063Y331634D01*
X1054066Y332878D01*
X1056768Y334684D01*
X1059066Y336982D01*
X1060872Y339684D01*
X1062116Y342687D01*
X1062750Y345875D01*
Y349125D01*
X1062116Y352313D01*
X1060872Y355316D01*
X1059066Y358018D01*
X1056768Y360316D01*
X1054066Y362122D01*
X1051063Y363366D01*
X1047875Y364000D01*
D02*
G37*
G36*
X1453948Y328100D02*
X1453500D01*
Y318100D01*
X1463500D01*
Y318548D01*
X1462750Y321346D01*
X1461302Y323854D01*
X1459254Y325902D01*
X1456746Y327350D01*
X1453948Y328100D01*
D02*
G37*
G36*
X1451500D02*
X1451052D01*
X1448254Y327350D01*
X1445746Y325902D01*
X1443698Y323854D01*
X1442250Y321346D01*
X1441500Y318548D01*
Y318100D01*
X1451500D01*
Y328100D01*
D02*
G37*
G36*
X1463500Y316100D02*
X1453500D01*
Y306100D01*
X1453948D01*
X1456746Y306850D01*
X1459254Y308298D01*
X1461302Y310346D01*
X1462750Y312854D01*
X1463500Y315652D01*
Y316100D01*
D02*
G37*
G36*
X1451500D02*
X1441500D01*
Y315652D01*
X1442250Y312854D01*
X1443698Y310346D01*
X1445746Y308298D01*
X1448254Y306850D01*
X1451052Y306100D01*
X1451500D01*
Y316100D01*
D02*
G37*
G36*
X301172Y303250D02*
X301085D01*
Y296000D01*
X308335D01*
Y296086D01*
X307773Y298184D01*
X306687Y300066D01*
X305151Y301602D01*
X303270Y302688D01*
X301172Y303250D01*
D02*
G37*
G36*
X299086D02*
X298999D01*
X296901Y302688D01*
X295020Y301602D01*
X293484Y300066D01*
X292398Y298184D01*
X291835Y296086D01*
Y296000D01*
X299086D01*
Y303250D01*
D02*
G37*
G36*
X241668Y321500D02*
X238418D01*
X235230Y320866D01*
X232227Y319622D01*
X229525Y317816D01*
X227227Y315518D01*
X225421Y312816D01*
X224177Y309813D01*
X223543Y306625D01*
Y303375D01*
X224177Y300187D01*
X225421Y297184D01*
X227227Y294482D01*
X229525Y292184D01*
X232227Y290378D01*
X235230Y289134D01*
X238418Y288500D01*
X241668D01*
X244856Y289134D01*
X247859Y290378D01*
X250561Y292184D01*
X252859Y294482D01*
X254665Y297184D01*
X255909Y300187D01*
X256543Y303375D01*
Y306625D01*
X255909Y309813D01*
X254665Y312816D01*
X252859Y315518D01*
X250561Y317816D01*
X247859Y319622D01*
X244856Y320866D01*
X241668Y321500D01*
D02*
G37*
G36*
X308335Y294000D02*
X301085D01*
Y286750D01*
X301172D01*
X303270Y287312D01*
X305151Y288398D01*
X306687Y289934D01*
X307773Y291816D01*
X308335Y293914D01*
Y294000D01*
D02*
G37*
G36*
X299086D02*
X291835D01*
Y293914D01*
X292398Y291816D01*
X293484Y289934D01*
X295020Y288398D01*
X296901Y287312D01*
X298999Y286750D01*
X299086D01*
Y294000D01*
D02*
G37*
G36*
X481020Y297750D02*
X478980D01*
X477009Y297222D01*
X475241Y296201D01*
X473798Y294759D01*
X472778Y292991D01*
X472250Y291020D01*
Y288980D01*
X472778Y287009D01*
X472875Y286840D01*
X448159Y262125D01*
X447991Y262222D01*
X446020Y262750D01*
X443980D01*
X442009Y262222D01*
X440241Y261201D01*
X438798Y259759D01*
X437778Y257991D01*
X437250Y256020D01*
Y253980D01*
X437778Y252009D01*
X438798Y250241D01*
X440241Y248799D01*
X442009Y247778D01*
X443980Y247250D01*
X446020D01*
X447991Y247778D01*
X449759Y248799D01*
X451202Y250241D01*
X452222Y252009D01*
X452750Y253980D01*
Y256020D01*
X452222Y257991D01*
X452125Y258160D01*
X476841Y282875D01*
X477009Y282778D01*
X478980Y282250D01*
X481020D01*
X482991Y282778D01*
X484759Y283799D01*
X486202Y285241D01*
X487222Y287009D01*
X487750Y288980D01*
Y291020D01*
X487222Y292991D01*
X486202Y294759D01*
X484759Y296201D01*
X482991Y297222D01*
X481020Y297750D01*
D02*
G37*
G36*
X653586Y278250D02*
X653500D01*
Y271000D01*
X660750D01*
Y271086D01*
X660188Y273184D01*
X659102Y275066D01*
X657566Y276602D01*
X655684Y277688D01*
X653586Y278250D01*
D02*
G37*
G36*
X651500D02*
X651414D01*
X649316Y277688D01*
X647434Y276602D01*
X645898Y275066D01*
X644812Y273184D01*
X644250Y271086D01*
Y271000D01*
X651500D01*
Y278250D01*
D02*
G37*
G36*
X660750Y269000D02*
X653500D01*
Y261750D01*
X653586D01*
X655684Y262312D01*
X657566Y263398D01*
X659102Y264934D01*
X660188Y266816D01*
X660750Y268914D01*
Y269000D01*
D02*
G37*
G36*
X651500D02*
X644250D01*
Y268914D01*
X644812Y266816D01*
X645898Y264934D01*
X647434Y263398D01*
X649316Y262312D01*
X651414Y261750D01*
X651500D01*
Y269000D01*
D02*
G37*
G36*
X203786Y252654D02*
X203700D01*
Y245404D01*
X210950D01*
Y245490D01*
X210388Y247589D01*
X209302Y249470D01*
X207766Y251006D01*
X205884Y252092D01*
X203786Y252654D01*
D02*
G37*
G36*
X201700D02*
X201614D01*
X199516Y252092D01*
X197634Y251006D01*
X196098Y249470D01*
X195012Y247589D01*
X194450Y245490D01*
Y245404D01*
X201700D01*
Y252654D01*
D02*
G37*
G36*
X210950Y243404D02*
X203700D01*
Y236154D01*
X203786D01*
X205884Y236717D01*
X207766Y237803D01*
X209302Y239339D01*
X210388Y241220D01*
X210950Y243318D01*
Y243404D01*
D02*
G37*
G36*
X201700D02*
X194450D01*
Y243318D01*
X195012Y241220D01*
X196098Y239339D01*
X197634Y237803D01*
X199516Y236717D01*
X201614Y236154D01*
X201700D01*
Y243404D01*
D02*
G37*
G36*
X1299720Y287009D02*
X1203200D01*
X1202225Y286815D01*
X1201398Y286262D01*
X1200845Y285435D01*
X1200651Y284460D01*
Y220960D01*
X1200845Y219985D01*
X1201398Y219158D01*
X1202225Y218605D01*
X1203200Y218411D01*
X1299720D01*
X1300695Y218605D01*
X1301522Y219158D01*
X1302075Y219985D01*
X1302269Y220960D01*
Y284460D01*
X1302075Y285435D01*
X1301522Y286262D01*
X1300695Y286815D01*
X1299720Y287009D01*
D02*
G37*
G36*
X796800D02*
X700280D01*
X699305Y286815D01*
X698478Y286262D01*
X697925Y285435D01*
X697731Y284460D01*
Y220960D01*
X697925Y219985D01*
X698478Y219158D01*
X699305Y218605D01*
X700280Y218411D01*
X796800D01*
X797775Y218605D01*
X798602Y219158D01*
X799155Y219985D01*
X799349Y220960D01*
Y284460D01*
X799155Y285435D01*
X798602Y286262D01*
X797775Y286815D01*
X796800Y287009D01*
D02*
G37*
G36*
X1027019Y211665D02*
X1023781D01*
X1020654Y210827D01*
X1017851Y209208D01*
X1015562Y206919D01*
X1013943Y204116D01*
X1013357Y201931D01*
X1012043D01*
X1011457Y204116D01*
X1009838Y206919D01*
X1007549Y209208D01*
X1004746Y210827D01*
X1001619Y211665D01*
X998381D01*
X995254Y210827D01*
X992451Y209208D01*
X990162Y206919D01*
X988543Y204116D01*
X987957Y201931D01*
X986643D01*
X986057Y204116D01*
X984438Y206919D01*
X982149Y209208D01*
X979346Y210827D01*
X976219Y211665D01*
X972981D01*
X969854Y210827D01*
X967051Y209208D01*
X964762Y206919D01*
X963143Y204116D01*
X962305Y200989D01*
Y197751D01*
X963143Y194624D01*
X964762Y191821D01*
X967051Y189532D01*
X969854Y187913D01*
X972981Y187075D01*
X976219D01*
X979346Y187913D01*
X982149Y189532D01*
X984438Y191821D01*
X986057Y194624D01*
X986643Y196809D01*
X987957D01*
X988543Y194624D01*
X990162Y191821D01*
X992451Y189532D01*
X995254Y187913D01*
X998381Y187075D01*
X1001619D01*
X1004746Y187913D01*
X1007549Y189532D01*
X1009838Y191821D01*
X1011457Y194624D01*
X1012043Y196809D01*
X1013357D01*
X1013943Y194624D01*
X1014948Y192883D01*
X995682Y173617D01*
X866433D01*
X865361Y173404D01*
X864451Y172796D01*
X816959Y125304D01*
X641642D01*
X615800Y151146D01*
Y162181D01*
X600800D01*
Y147181D01*
X611835D01*
X638498Y120517D01*
X639408Y119910D01*
X640481Y119696D01*
X818120D01*
X819193Y119910D01*
X820103Y120517D01*
X867595Y168010D01*
X996843D01*
X997916Y168223D01*
X998826Y168831D01*
X1018913Y188918D01*
X1020654Y187913D01*
X1023781Y187075D01*
X1027019D01*
X1030146Y187913D01*
X1032949Y189532D01*
X1035238Y191821D01*
X1036857Y194624D01*
X1037695Y197751D01*
Y200989D01*
X1036857Y204116D01*
X1035238Y206919D01*
X1032949Y209208D01*
X1030146Y210827D01*
X1027019Y211665D01*
D02*
G37*
G36*
X1460000Y215000D02*
X1445000D01*
Y200000D01*
X1460000D01*
Y215000D01*
D02*
G37*
G36*
X321086Y195750D02*
X321000D01*
Y188500D01*
X328250D01*
Y188586D01*
X327688Y190684D01*
X326602Y192566D01*
X325066Y194102D01*
X323184Y195188D01*
X321086Y195750D01*
D02*
G37*
G36*
X319000D02*
X318914D01*
X316816Y195188D01*
X314934Y194102D01*
X313398Y192566D01*
X312312Y190684D01*
X311750Y188586D01*
Y188500D01*
X319000D01*
Y195750D01*
D02*
G37*
G36*
X328250Y186500D02*
X321000D01*
Y179250D01*
X321086D01*
X323184Y179812D01*
X325066Y180898D01*
X326602Y182434D01*
X327688Y184316D01*
X328250Y186414D01*
Y186500D01*
D02*
G37*
G36*
X319000D02*
X311750D01*
Y186414D01*
X312312Y184316D01*
X313398Y182434D01*
X314934Y180898D01*
X316816Y179812D01*
X318914Y179250D01*
X319000D01*
Y186500D01*
D02*
G37*
G36*
X1453487Y189600D02*
X1451513D01*
X1449605Y189089D01*
X1447895Y188102D01*
X1446499Y186705D01*
X1445511Y184995D01*
X1445000Y183087D01*
Y181113D01*
X1445511Y179205D01*
X1446499Y177495D01*
X1447895Y176098D01*
X1449605Y175111D01*
X1451513Y174600D01*
X1453487D01*
X1455395Y175111D01*
X1457105Y176098D01*
X1458501Y177495D01*
X1459489Y179205D01*
X1460000Y181113D01*
Y183087D01*
X1459489Y184995D01*
X1458501Y186705D01*
X1457105Y188102D01*
X1455395Y189089D01*
X1453487Y189600D01*
D02*
G37*
G36*
X71607Y173250D02*
X71521D01*
Y166000D01*
X78771D01*
Y166086D01*
X78209Y168184D01*
X77123Y170066D01*
X75587Y171602D01*
X73705Y172688D01*
X71607Y173250D01*
D02*
G37*
G36*
X69521D02*
X69435D01*
X67337Y172688D01*
X65455Y171602D01*
X63919Y170066D01*
X62833Y168184D01*
X62271Y166086D01*
Y166000D01*
X69521D01*
Y173250D01*
D02*
G37*
G36*
X78771Y164000D02*
X71521D01*
Y156750D01*
X71607D01*
X73705Y157312D01*
X75587Y158398D01*
X77123Y159934D01*
X78209Y161816D01*
X78771Y163914D01*
Y164000D01*
D02*
G37*
G36*
X69521D02*
X62271D01*
Y163914D01*
X62833Y161816D01*
X63919Y159934D01*
X65455Y158398D01*
X67337Y157312D01*
X69435Y156750D01*
X69521D01*
Y164000D01*
D02*
G37*
G36*
X468586Y156930D02*
X468500D01*
Y149679D01*
X475750D01*
Y149766D01*
X475188Y151864D01*
X474102Y153745D01*
X472566Y155281D01*
X470684Y156367D01*
X468586Y156930D01*
D02*
G37*
G36*
X466500D02*
X466414D01*
X464316Y156367D01*
X462434Y155281D01*
X460898Y153745D01*
X459812Y151864D01*
X459250Y149766D01*
Y149679D01*
X466500D01*
Y156930D01*
D02*
G37*
G36*
X938520Y520250D02*
X936480D01*
X934509Y519722D01*
X932741Y518702D01*
X931299Y517259D01*
X930278Y515491D01*
X929750Y513520D01*
Y511480D01*
X930278Y509509D01*
X931299Y507741D01*
X932741Y506298D01*
X934509Y505278D01*
X934696Y505228D01*
Y346900D01*
X934910Y345827D01*
X935517Y344917D01*
X979917Y300517D01*
X980827Y299910D01*
X981900Y299696D01*
X1305489D01*
X1445508Y159677D01*
X1445461Y159595D01*
X1444950Y157687D01*
Y155713D01*
X1445461Y153805D01*
X1446449Y152095D01*
X1447845Y150698D01*
X1449555Y149711D01*
X1451463Y149200D01*
X1453437D01*
X1455345Y149711D01*
X1457055Y150698D01*
X1458452Y152095D01*
X1459439Y153805D01*
X1459950Y155713D01*
Y157687D01*
X1459439Y159595D01*
X1458452Y161305D01*
X1457055Y162701D01*
X1455345Y163689D01*
X1453437Y164200D01*
X1451463D01*
X1449555Y163689D01*
X1449474Y163642D01*
X1308633Y304483D01*
X1307723Y305090D01*
X1306650Y305304D01*
X983061D01*
X940304Y348061D01*
Y505228D01*
X940491Y505278D01*
X942259Y506298D01*
X943701Y507741D01*
X944722Y509509D01*
X945250Y511480D01*
Y513520D01*
X944722Y515491D01*
X943701Y517259D01*
X942259Y518702D01*
X940491Y519722D01*
X938520Y520250D01*
D02*
G37*
G36*
X558487Y162231D02*
X556513D01*
X554605Y161720D01*
X552895Y160732D01*
X551498Y159336D01*
X550511Y157626D01*
X550000Y155718D01*
Y153744D01*
X550511Y151836D01*
X551498Y150126D01*
X552895Y148729D01*
X554605Y147742D01*
X556513Y147231D01*
X558487D01*
X560395Y147742D01*
X562105Y148729D01*
X563502Y150126D01*
X564489Y151836D01*
X565000Y153744D01*
Y155718D01*
X564489Y157626D01*
X563502Y159336D01*
X562105Y160732D01*
X560395Y161720D01*
X558487Y162231D01*
D02*
G37*
G36*
X583887Y162181D02*
X581913D01*
X580005Y161670D01*
X578295Y160683D01*
X576898Y159286D01*
X575911Y157576D01*
X575400Y155668D01*
Y153694D01*
X575911Y151786D01*
X576898Y150076D01*
X578295Y148680D01*
X580005Y147692D01*
X581913Y147181D01*
X583887D01*
X585795Y147692D01*
X587505Y148680D01*
X588901Y150076D01*
X589889Y151786D01*
X590400Y153694D01*
Y155668D01*
X589889Y157576D01*
X588901Y159286D01*
X587505Y160683D01*
X585795Y161670D01*
X583887Y162181D01*
D02*
G37*
G36*
X475750Y147680D02*
X468500D01*
Y140429D01*
X468586D01*
X470684Y140992D01*
X472566Y142078D01*
X474102Y143614D01*
X475188Y145495D01*
X475750Y147593D01*
Y147680D01*
D02*
G37*
G36*
X466500D02*
X459250D01*
Y147593D01*
X459812Y145495D01*
X460898Y143614D01*
X462434Y142078D01*
X464316Y140992D01*
X466414Y140429D01*
X466500D01*
Y147680D01*
D02*
G37*
G36*
X1220657Y188170D02*
X1216223D01*
X1211843Y187476D01*
X1207626Y186106D01*
X1203676Y184093D01*
X1200089Y181487D01*
X1196953Y178351D01*
X1194347Y174764D01*
X1192334Y170814D01*
X1190964Y166597D01*
X1190270Y162217D01*
Y157783D01*
X1190964Y153404D01*
X1192334Y149186D01*
X1194347Y145236D01*
X1196953Y141649D01*
X1200089Y138513D01*
X1203676Y135907D01*
X1207626Y133894D01*
X1211843Y132524D01*
X1216223Y131830D01*
X1220657D01*
X1225036Y132524D01*
X1229253Y133894D01*
X1233204Y135907D01*
X1236792Y138513D01*
X1239927Y141649D01*
X1242533Y145236D01*
X1244546Y149186D01*
X1245916Y153404D01*
X1246610Y157783D01*
Y162217D01*
X1245916Y166597D01*
X1244546Y170814D01*
X1242533Y174764D01*
X1239927Y178351D01*
X1236792Y181487D01*
X1233204Y184093D01*
X1229253Y186106D01*
X1225036Y187476D01*
X1220657Y188170D01*
D02*
G37*
G36*
X783777D02*
X779343D01*
X774964Y187476D01*
X770747Y186106D01*
X766796Y184093D01*
X763208Y181487D01*
X760073Y178351D01*
X757467Y174764D01*
X755454Y170814D01*
X754084Y166597D01*
X753390Y162217D01*
Y157783D01*
X754084Y153404D01*
X755454Y149186D01*
X757467Y145236D01*
X760073Y141649D01*
X763208Y138513D01*
X766796Y135907D01*
X770747Y133894D01*
X774964Y132524D01*
X779343Y131830D01*
X783777D01*
X788157Y132524D01*
X792374Y133894D01*
X796324Y135907D01*
X799911Y138513D01*
X803047Y141649D01*
X805653Y145236D01*
X807666Y149186D01*
X809036Y153404D01*
X809730Y157783D01*
Y162217D01*
X809036Y166597D01*
X807666Y170814D01*
X805653Y174764D01*
X803047Y178351D01*
X799911Y181487D01*
X796324Y184093D01*
X792374Y186106D01*
X788157Y187476D01*
X783777Y188170D01*
D02*
G37*
G36*
X161086Y138250D02*
X161000D01*
Y131000D01*
X168250D01*
Y131086D01*
X167688Y133184D01*
X166602Y135066D01*
X165066Y136602D01*
X163184Y137688D01*
X161086Y138250D01*
D02*
G37*
G36*
X159000D02*
X158914D01*
X156816Y137688D01*
X154934Y136602D01*
X153398Y135066D01*
X152312Y133184D01*
X151750Y131086D01*
Y131000D01*
X159000D01*
Y138250D01*
D02*
G37*
G36*
X353586Y135750D02*
X353500D01*
Y128500D01*
X360750D01*
Y128586D01*
X360188Y130684D01*
X359102Y132566D01*
X357566Y134102D01*
X355684Y135188D01*
X353586Y135750D01*
D02*
G37*
G36*
X351500D02*
X351414D01*
X349316Y135188D01*
X347434Y134102D01*
X345898Y132566D01*
X344812Y130684D01*
X344250Y128586D01*
Y128500D01*
X351500D01*
Y135750D01*
D02*
G37*
G36*
X168250Y129000D02*
X161000D01*
Y121750D01*
X161086D01*
X163184Y122312D01*
X165066Y123398D01*
X166602Y124934D01*
X167688Y126816D01*
X168250Y128914D01*
Y129000D01*
D02*
G37*
G36*
X159000D02*
X151750D01*
Y128914D01*
X152312Y126816D01*
X153398Y124934D01*
X154934Y123398D01*
X156816Y122312D01*
X158914Y121750D01*
X159000D01*
Y129000D01*
D02*
G37*
G36*
X360750Y126500D02*
X353500D01*
Y119250D01*
X353586D01*
X355684Y119812D01*
X357566Y120898D01*
X359102Y122434D01*
X360188Y124316D01*
X360750Y126414D01*
Y126500D01*
D02*
G37*
G36*
X351500D02*
X344250D01*
Y126414D01*
X344812Y124316D01*
X345898Y122434D01*
X347434Y120898D01*
X349316Y119812D01*
X351414Y119250D01*
X351500D01*
Y126500D01*
D02*
G37*
G36*
X212700Y100000D02*
X203700D01*
Y91000D01*
X212700D01*
Y100000D01*
D02*
G37*
G36*
X201700D02*
X192700D01*
Y91000D01*
X201700D01*
Y100000D01*
D02*
G37*
G36*
X178551Y99500D02*
X176049D01*
X173633Y98853D01*
X171467Y97602D01*
X169698Y95833D01*
X168447Y93667D01*
X167800Y91251D01*
Y88749D01*
X168447Y86333D01*
X169698Y84167D01*
X171467Y82398D01*
X173633Y81147D01*
X176049Y80500D01*
X178551D01*
X180967Y81147D01*
X183133Y82398D01*
X184902Y84167D01*
X186153Y86333D01*
X186800Y88749D01*
Y91251D01*
X186153Y93667D01*
X184902Y95833D01*
X183133Y97602D01*
X180967Y98853D01*
X178551Y99500D01*
D02*
G37*
G36*
X134950D02*
X115950D01*
Y80500D01*
X134950D01*
Y99500D01*
D02*
G37*
G36*
X101301D02*
X98799D01*
X96383Y98853D01*
X94217Y97602D01*
X92448Y95833D01*
X91197Y93667D01*
X90550Y91251D01*
Y88749D01*
X91197Y86333D01*
X92448Y84167D01*
X94217Y82398D01*
X96383Y81147D01*
X98799Y80500D01*
X101301D01*
X103717Y81147D01*
X105883Y82398D01*
X107652Y84167D01*
X108903Y86333D01*
X109550Y88749D01*
Y91251D01*
X108903Y93667D01*
X107652Y95833D01*
X105883Y97602D01*
X103717Y98853D01*
X101301Y99500D01*
D02*
G37*
G36*
X212700Y89000D02*
X203700D01*
Y80000D01*
X212700D01*
Y89000D01*
D02*
G37*
G36*
X201700D02*
X192700D01*
Y80000D01*
X201700D01*
Y89000D01*
D02*
G37*
G36*
X434174Y72187D02*
X433500D01*
Y56187D01*
X449500D01*
Y56862D01*
X448847Y60146D01*
X447565Y63240D01*
X445705Y66024D01*
X443337Y68392D01*
X440552Y70252D01*
X437459Y71534D01*
X434174Y72187D01*
D02*
G37*
G36*
X431500D02*
X430826D01*
X427541Y71534D01*
X424448Y70252D01*
X421663Y68392D01*
X419295Y66024D01*
X417435Y63240D01*
X416153Y60146D01*
X415500Y56862D01*
Y56187D01*
X431500D01*
Y72187D01*
D02*
G37*
G36*
X361625Y76500D02*
X358375D01*
X355187Y75866D01*
X352184Y74622D01*
X349482Y72816D01*
X347184Y70518D01*
X345378Y67816D01*
X344134Y64813D01*
X343500Y61625D01*
Y58375D01*
X344134Y55187D01*
X345378Y52184D01*
X347184Y49482D01*
X349482Y47184D01*
X352184Y45378D01*
X355187Y44134D01*
X358375Y43500D01*
X361625D01*
X364813Y44134D01*
X367816Y45378D01*
X370518Y47184D01*
X372816Y49482D01*
X374622Y52184D01*
X375866Y55187D01*
X376500Y58375D01*
Y61625D01*
X375866Y64813D01*
X374622Y67816D01*
X372816Y70518D01*
X370518Y72816D01*
X367816Y74622D01*
X364813Y75866D01*
X361625Y76500D01*
D02*
G37*
G36*
X449500Y54187D02*
X433500D01*
Y38187D01*
X434174D01*
X437459Y38840D01*
X440552Y40122D01*
X443337Y41982D01*
X445705Y44350D01*
X447565Y47135D01*
X448847Y50228D01*
X449500Y53513D01*
Y54187D01*
D02*
G37*
G36*
X431500D02*
X415500D01*
Y53513D01*
X416153Y50228D01*
X417435Y47135D01*
X419295Y44350D01*
X421663Y41982D01*
X424448Y40122D01*
X427541Y38840D01*
X430826Y38187D01*
X431500D01*
Y54187D01*
D02*
G37*
G36*
X1119380Y144769D02*
X1038100D01*
X1037125Y144575D01*
X1036298Y144022D01*
X1035745Y143195D01*
X1035551Y142220D01*
Y35540D01*
X1035745Y34565D01*
X1036298Y33738D01*
X1037125Y33185D01*
X1038100Y32991D01*
X1299720D01*
X1300695Y33185D01*
X1301522Y33738D01*
X1302075Y34565D01*
X1302269Y35540D01*
Y96500D01*
X1302075Y97475D01*
X1301522Y98302D01*
X1300695Y98855D01*
X1299720Y99049D01*
X1166156D01*
X1121182Y144022D01*
X1120356Y144575D01*
X1119380Y144769D01*
D02*
G37*
G36*
X961900D02*
X880620D01*
X879645Y144575D01*
X878818Y144022D01*
X833844Y99049D01*
X700280D01*
X699305Y98855D01*
X698478Y98302D01*
X697925Y97475D01*
X697731Y96500D01*
Y35540D01*
X697925Y34565D01*
X698478Y33738D01*
X699305Y33185D01*
X700280Y32991D01*
X961900D01*
X962875Y33185D01*
X963702Y33738D01*
X964255Y34565D01*
X964449Y35540D01*
Y142220D01*
X964255Y143195D01*
X963702Y144022D01*
X962875Y144575D01*
X961900Y144769D01*
D02*
G37*
G36*
X1552479Y81500D02*
X1547521D01*
X1542624Y80724D01*
X1537908Y79192D01*
X1533490Y76941D01*
X1529479Y74027D01*
X1525973Y70521D01*
X1523059Y66510D01*
X1520808Y62092D01*
X1519276Y57376D01*
X1518500Y52479D01*
Y47521D01*
X1519276Y42624D01*
X1520808Y37908D01*
X1523059Y33490D01*
X1525973Y29479D01*
X1529479Y25973D01*
X1533490Y23059D01*
X1537908Y20808D01*
X1542624Y19276D01*
X1547521Y18500D01*
X1552479D01*
X1557376Y19276D01*
X1562092Y20808D01*
X1566510Y23059D01*
X1570521Y25973D01*
X1574027Y29479D01*
X1576941Y33490D01*
X1579192Y37908D01*
X1580724Y42624D01*
X1581500Y47521D01*
Y52479D01*
X1580724Y57376D01*
X1579192Y62092D01*
X1576941Y66510D01*
X1574027Y70521D01*
X1570521Y74027D01*
X1566510Y76941D01*
X1562092Y79192D01*
X1557376Y80724D01*
X1552479Y81500D01*
D02*
G37*
G36*
X52479D02*
X47521D01*
X42624Y80724D01*
X37908Y79192D01*
X33490Y76941D01*
X29479Y74027D01*
X25973Y70521D01*
X23059Y66510D01*
X20808Y62092D01*
X19276Y57376D01*
X18500Y52479D01*
Y47521D01*
X19276Y42624D01*
X20808Y37908D01*
X23059Y33490D01*
X25973Y29479D01*
X29479Y25973D01*
X33490Y23059D01*
X37908Y20808D01*
X42624Y19276D01*
X47521Y18500D01*
X52479D01*
X57376Y19276D01*
X62092Y20808D01*
X66510Y23059D01*
X70521Y25973D01*
X74027Y29479D01*
X76941Y33490D01*
X79192Y37908D01*
X80724Y42624D01*
X81500Y47521D01*
Y52479D01*
X80724Y57376D01*
X79192Y62092D01*
X76941Y66510D01*
X74027Y70521D01*
X70521Y74027D01*
X66510Y76941D01*
X62092Y79192D01*
X57376Y80724D01*
X52479Y81500D01*
D02*
G37*
%LPD*%
D10*
X1290913Y522500D02*
X1423500D01*
X1457500Y556500D01*
X977500Y502500D02*
X1147500D01*
X1177500Y472500D02*
X1247500D01*
X1147500Y502500D02*
X1177500Y472500D01*
X1298200Y446000D02*
X1452500Y291700D01*
X1156272Y446000D02*
X1298200D01*
X1127272Y475000D02*
X1156272Y446000D01*
X1035732Y475000D02*
X1127272D01*
X937500Y346900D02*
X981900Y302500D01*
X937500Y346900D02*
Y512500D01*
X967500Y492500D02*
X977500Y502500D01*
X981900Y302500D02*
X1306650D01*
X1452450Y156700D01*
X1422500Y455000D02*
X1430000Y447500D01*
X996843Y170814D02*
X1025400Y199370D01*
X818120Y122500D02*
X866433Y170814D01*
X996843D01*
X640481Y122500D02*
X818120D01*
X608300Y154681D02*
X640481Y122500D01*
X1430000Y447500D02*
X1455000Y422500D01*
X1160000Y455000D02*
X1422500D01*
X445000Y255000D02*
X480000Y290000D01*
D15*
X325000Y15000D02*
X319922D01*
X322461D01*
Y30235D01*
X325000Y27696D01*
X304687Y15000D02*
Y30235D01*
X312304Y22618D01*
X302147D01*
X297069Y27696D02*
X294530Y30235D01*
X289452D01*
X286912Y27696D01*
Y25157D01*
X289452Y22618D01*
X291991D01*
X289452D01*
X286912Y20078D01*
Y17539D01*
X289452Y15000D01*
X294530D01*
X297069Y17539D01*
X281834Y27696D02*
X279295Y30235D01*
X274216D01*
X271677Y27696D01*
Y25157D01*
X274216Y22618D01*
X271677Y20078D01*
Y17539D01*
X274216Y15000D01*
X279295D01*
X281834Y17539D01*
Y20078D01*
X279295Y22618D01*
X281834Y25157D01*
Y27696D01*
X279295Y22618D02*
X274216D01*
X266599Y15000D02*
Y17539D01*
X264060D01*
Y15000D01*
X266599D01*
X243746Y30235D02*
X253903D01*
Y22618D01*
X248825Y25157D01*
X246285D01*
X243746Y22618D01*
Y17539D01*
X246285Y15000D01*
X251364D01*
X253903Y17539D01*
X238668Y15000D02*
X233590D01*
X236129D01*
Y30235D01*
X238668Y27696D01*
X225972D02*
X223433Y30235D01*
X218354D01*
X215815Y27696D01*
Y17539D01*
X218354Y15000D01*
X223433D01*
X225972Y17539D01*
Y27696D01*
X210737D02*
X208198Y30235D01*
X203119D01*
X200580Y27696D01*
Y17539D01*
X203119Y15000D01*
X208198D01*
X210737Y17539D01*
Y27696D01*
X195502Y15000D02*
Y17539D01*
X192963D01*
Y15000D01*
X195502D01*
X182806Y27696D02*
X180267Y30235D01*
X175189D01*
X172649Y27696D01*
Y17539D01*
X175189Y15000D01*
X180267D01*
X182806Y17539D01*
Y27696D01*
X167571D02*
X165032Y30235D01*
X159953D01*
X157414Y27696D01*
Y17539D01*
X159953Y15000D01*
X165032D01*
X167571Y17539D01*
Y27696D01*
X115157Y15000D02*
X105000D01*
X115157Y25157D01*
Y27696D01*
X112618Y30235D01*
X107539D01*
X105000Y27696D01*
D32*
X202700Y90000D02*
D03*
X125450D02*
D03*
D33*
X177300D02*
D03*
X100050D02*
D03*
X393801Y643598D02*
D03*
X540801D02*
D03*
X393801Y683598D02*
D03*
X540801D02*
D03*
X1210000Y793801D02*
D03*
Y940801D02*
D03*
X1260000Y793801D02*
D03*
Y940801D02*
D03*
X1310000Y793801D02*
D03*
Y940801D02*
D03*
X1360000Y793801D02*
D03*
Y940801D02*
D03*
D34*
X1457500Y632500D02*
D03*
Y802500D02*
D03*
X307500Y643598D02*
D03*
X432500Y55187D02*
D03*
X340000Y501786D02*
D03*
X727500Y614609D02*
D03*
X1046250Y347500D02*
D03*
X240043Y305000D02*
D03*
X360000Y60000D02*
D03*
D35*
X1457500Y710000D02*
D03*
Y531100D02*
D03*
X1455000Y397100D02*
D03*
Y422500D02*
D03*
X1452500Y342500D02*
D03*
Y317100D02*
D03*
X460000Y570000D02*
D03*
X485400D02*
D03*
D36*
X1457500Y735400D02*
D03*
Y556500D02*
D03*
X1455000Y447900D02*
D03*
X1452500Y291700D02*
D03*
D37*
X37500Y603460D02*
D03*
X262500D02*
D03*
D38*
X466960Y850630D02*
D03*
X903840D02*
D03*
X781560Y160000D02*
D03*
X1218440D02*
D03*
D39*
X710800Y890000D02*
D03*
X660000D02*
D03*
X685400D02*
D03*
X1025400Y199370D02*
D03*
X1000000D02*
D03*
X974600D02*
D03*
D40*
X50000Y50000D02*
D03*
Y950000D02*
D03*
X1550000D02*
D03*
Y50000D02*
D03*
D41*
X30000Y850000D02*
D03*
X210000D02*
D03*
X30000Y733460D02*
D03*
X210000D02*
D03*
D42*
X434600Y570000D02*
D03*
D43*
X1452500Y207500D02*
D03*
X587500Y680800D02*
D03*
D44*
X1452500Y182100D02*
D03*
X1452450Y156700D02*
D03*
X582900Y154681D02*
D03*
X557500Y154731D02*
D03*
X587500Y655400D02*
D03*
X587450Y630000D02*
D03*
D45*
X608300Y154681D02*
D03*
D46*
X202700Y244404D02*
D03*
X160000Y130000D02*
D03*
X983719Y552500D02*
D03*
X175000Y370000D02*
D03*
X115372Y375000D02*
D03*
X467500Y148680D02*
D03*
X1367602Y637500D02*
D03*
X1292500Y522500D02*
D03*
X1247500Y472500D02*
D03*
X1201398Y502500D02*
D03*
X652500Y270000D02*
D03*
X1035732Y475000D02*
D03*
X890000Y532500D02*
D03*
X632395Y400000D02*
D03*
X715000Y385000D02*
D03*
X767500Y370000D02*
D03*
X817500Y420000D02*
D03*
X890000Y400000D02*
D03*
X972259Y420000D02*
D03*
X1070000Y405000D02*
D03*
X1127500Y489509D02*
D03*
X1070000Y817500D02*
D03*
X967500Y492500D02*
D03*
X937500Y512500D02*
D03*
X1160000Y455000D02*
D03*
X480000Y290000D02*
D03*
X445000Y255000D02*
D03*
X175000Y417500D02*
D03*
X352500Y127500D02*
D03*
X300086Y295000D02*
D03*
X320000Y187500D02*
D03*
X70521Y165000D02*
D03*
D47*
X175000Y370000D02*
Y417500D01*
M02*
